<svg xmlns="http://www.w3.org/2000/svg" version="1.1" xmlns:xlink="http://www.w3.org/1999/xlink" xmlns:svgjs="http://svgjs.dev/svgjs" width="1000" height="1000" viewBox="0 0 1000 1000"><rect width="1000" height="1000" fill="#4b91f1"></rect><g transform="matrix(0.7,0,0,0.7,150.04482242518776,257.64639676113364)"><svg viewBox="0 0 356 247" data-background-color="#4b91f1" preserveAspectRatio="xMidYMid meet" height="693" width="1000" xmlns="http://www.w3.org/2000/svg" xmlns:xlink="http://www.w3.org/1999/xlink"><g id="tight-bounds" transform="matrix(1,0,0,1,-0.022795404809755837,-0.09999999999999432)"><svg viewBox="0 0 356.0455908096195 247.2" height="247.2" width="356.0455908096195"><g><svg viewBox="0 0 395.52 274.60681026177843" height="247.2" width="356.0455908096195"><g transform="matrix(1,0,0,1,0,218.97694946887586)"><svg viewBox="0 0 395.52 55.6298607929026" height="55.6298607929026" width="395.52"><g id="textblocktransform"><svg viewBox="0 0 395.52 55.6298607929026" height="55.6298607929026" width="395.52" id="textblock"><g><svg viewBox="0 0 395.52 30.00408871745419" height="30.00408871745419" width="395.52"><g transform="matrix(1,0,0,1,0,0)"><svg width="395.52" viewBox="3.25 -35.2 466.61 35.400000000000006" height="30.00408871745419" data-palette-color="#77d4fc"><path d="M18-35.2L18-35.2Q32.75-35.2 32.75-17.4L32.75-17.4Q32.75-9.25 28.55-4.53 24.35 0.2 18 0.2L18 0.2Q11.25 0.2 7.55-3.5L7.55-3.5Q3.25-7.9 3.25-16.75 3.25-25.6 7.48-30.4 11.7-35.2 18-35.2ZM10-5.9L10-5.9Q12.75-2.8 18-2.8L18-2.8Q22.95-2.8 26.15-6.73 29.35-10.65 29.35-18 29.35-25.35 26-29.05L26-29.05Q23.2-32.2 18-32.2L18-32.2Q13.1-32.2 9.88-28.25 6.65-24.3 6.65-16.93 6.65-9.55 10-5.9ZM42.4 0L39 0 39-35 46.25-35Q52.4-35 55.15-33.05L55.15-33.05Q58.35-30.8 58.35-25.35L58.35-25.35Q58.35-16.25 51.35-14.25L51.35-14.25Q49.1-13.6 46.25-13.6L46.25-13.6 42.4-13.6 42.4 0ZM46-32.25L42.4-32.25 42.4-16.35 46-16.35Q50.5-16.35 52.72-18.32 54.95-20.3 54.95-24.78 54.95-29.25 52.72-30.75 50.5-32.25 46-32.25L46-32.25ZM76.15 0L73 0 73-32 63.1-32 63.35-35 86-35 85.75-32 76.15-32 76.15 0ZM94.14-35L104.94-14.55 115.29-35 118.79-35 106.54-11.75 106.54 0 103.39 0 103.39-11.8 90.49-35 94.14-35ZM145.64 0L135.89-16.1 126.69 0 123.19 0 134.34-18.65 124.04-35 127.94-35 136.54-20.7 144.74-35 148.24-35 138.09-18.15 149.54 0 145.64 0ZM173.39-35L173.14-32 158.59-32 158.59-18.85 172.09-18.85 171.84-15.85 158.59-15.85 158.59-3 174.39-3 174.14 0 155.19 0 155.19-35 173.39-35ZM205.99 0L202.34 0 182.39-30.5 182.64 0 179.49 0 179.49-35 183.14-35 203.04-4.5 202.84-35 205.99-35 205.99 0ZM227.08-35.2L227.08-35.2Q241.83-35.2 241.83-17.4L241.83-17.4Q241.83-9.25 237.63-4.53 233.43 0.2 227.08 0.2L227.08 0.2Q220.33 0.2 216.63-3.5L216.63-3.5Q212.33-7.9 212.33-16.75 212.33-25.6 216.56-30.4 220.78-35.2 227.08-35.2ZM219.08-5.9L219.08-5.9Q221.83-2.8 227.08-2.8L227.08-2.8Q232.03-2.8 235.23-6.73 238.43-10.65 238.43-18 238.43-25.35 235.08-29.05L235.08-29.05Q232.28-32.2 227.08-32.2L227.08-32.2Q222.18-32.2 218.96-28.25 215.73-24.3 215.73-16.93 215.73-9.55 219.08-5.9ZM274.18 0L270.53 0 250.58-30.5 250.83 0 247.68 0 247.68-35 251.33-35 271.23-4.5 271.03-35 274.18-35 274.18 0ZM320.48-32.35L319.18-30.1Q317.88-31.4 314.48-32.05L314.48-32.05Q313.23-32.3 311.23-32.3 309.23-32.3 307-31.35 304.78-30.4 303.08-28.4L303.08-28.4Q299.43-24 299.43-16 299.43-8 303.08-4.8L303.08-4.8Q305.58-2.55 309.7-2.55 313.83-2.55 317.63-3.6L317.63-3.6 317.88-15.5 320.63-15.5 320.63-2Q318.43-0.6 312.68 0L312.68 0Q311.08 0.2 309.3 0.2 307.53 0.2 305.13-0.38 302.73-0.95 300.68-2.7L300.68-2.7Q296.03-6.65 296.03-15.85 296.03-25.05 300.43-30.08 304.83-35.1 311.78-35.1L311.78-35.1 313.38-35Q316.53-34.7 318.2-33.85 319.88-33 320.48-32.35L320.48-32.35ZM347.07-25.6L347.07-25.6Q347.07-18.4 342.12-15.95L342.12-15.95 349.67 0 346.02 0 338.92-14.9Q337.12-14.6 334.97-14.6L334.97-14.6 331.12-14.6 331.12 0 327.72 0 327.72-35 334.97-35Q341.07-35 343.87-33.1L343.87-33.1Q347.07-30.95 347.07-25.6ZM334.72-32.25L331.12-32.25 331.12-17.35 334.72-17.35Q339.17-17.35 341.42-19.15 343.67-20.95 343.67-25.4L343.67-25.4Q343.67-31.1 338.47-32L338.47-32Q336.82-32.25 334.72-32.25L334.72-32.25ZM368.47-35.2L368.47-35.2Q383.22-35.2 383.22-17.4L383.22-17.4Q383.22-9.25 379.02-4.53 374.82 0.2 368.47 0.2L368.47 0.2Q361.72 0.2 358.02-3.5L358.02-3.5Q353.72-7.9 353.72-16.75 353.72-25.6 357.95-30.4 362.17-35.2 368.47-35.2ZM360.47-5.9L360.47-5.9Q363.22-2.8 368.47-2.8L368.47-2.8Q373.42-2.8 376.62-6.73 379.82-10.65 379.82-18 379.82-25.35 376.47-29.05L376.47-29.05Q373.67-32.2 368.47-32.2L368.47-32.2Q363.57-32.2 360.35-28.25 357.12-24.3 357.12-16.93 357.12-9.55 360.47-5.9ZM411.67-35L414.82-35 414.82-15Q414.82-7.2 411.17-3.25L411.17-3.25Q407.92 0.2 402.24 0.2 396.57 0.2 393.57-2.5L393.57-2.5Q389.57-6.15 389.57-15L389.57-15 389.57-35 392.97-35 392.97-15.05Q392.97-7.8 395.97-4.8L395.97-4.8Q398.22-2.55 402.47-2.55L402.47-2.55Q408.82-2.55 410.92-9.2L410.92-9.2Q411.67-11.55 411.67-15.05L411.67-15.05 411.67-35ZM425.57 0L422.17 0 422.17-35 429.42-35Q435.57-35 438.32-33.05L438.32-33.05Q441.52-30.8 441.52-25.35L441.52-25.35Q441.52-16.25 434.52-14.25L434.52-14.25Q432.27-13.6 429.42-13.6L429.42-13.6 425.57-13.6 425.57 0ZM429.17-32.25L425.57-32.25 425.57-16.35 429.17-16.35Q433.67-16.35 435.89-18.32 438.12-20.3 438.12-24.78 438.12-29.25 435.89-30.75 433.67-32.25 429.17-32.25L429.17-32.25ZM467.31-34.1L467.31-34.1 466.71-31.25Q462.86-32.1 460.16-32.1L460.16-32.1Q450.46-32.1 450.46-26.2L450.46-26.2Q450.46-23.95 451.89-22.75 453.31-21.55 455.49-20.78 457.66-20 460.16-19.38 462.66-18.75 464.81-17.7L464.81-17.7Q469.86-15.2 469.86-10.05 469.86-4.9 466.01-2.25L466.01-2.25Q462.71 0.05 457.31 0.05L457.31 0.05Q450.61 0.05 446.01-3L446.01-3 447.31-5.55Q448.66-4.6 451.16-3.78 453.66-2.95 456.01-2.95L456.01-2.95Q460.61-2.95 463.26-4.45L463.26-4.45Q466.46-6.3 466.46-9.75L466.46-9.75Q466.46-12.3 465.04-13.73 463.61-15.15 461.44-16.03 459.26-16.9 456.76-17.53 454.26-18.15 452.11-19.1L452.11-19.1Q447.06-21.3 447.06-25.65 447.06-30 450.06-32.55 453.06-35.1 458.56-35.1L458.56-35.1Q462.81-35.1 467.31-34.1Z" opacity="1" transform="matrix(1,0,0,1,0,0)" fill="#77d4fc" class="wordmark-text-0" data-fill-palette-color="primary" id="text-0"></path></svg></g></svg></g><g transform="matrix(1,0,0,1,0,37.08733396551591)"><svg viewBox="0 0 395.52 18.54252682738669" height="18.54252682738669" width="395.52"><g transform="matrix(1,0,0,1,0,0)"><svg width="395.52" viewBox="3.25 -37.5 1066.52 50" height="18.54252682738669" data-palette-color="#0718c4"><path d="M27.7-32.35L26.4-30.1Q25.1-31.4 21.7-32.05L21.7-32.05Q20.45-32.3 18.45-32.3 16.45-32.3 14.23-31.35 12-30.4 10.3-28.4L10.3-28.4Q6.65-24 6.65-16 6.65-8 10.3-4.8L10.3-4.8Q12.8-2.55 16.93-2.55 21.05-2.55 24.85-3.6L24.85-3.6 25.1-15.5 27.85-15.5 27.85-2Q25.65-0.6 19.9 0L19.9 0Q18.3 0.2 16.53 0.2 14.75 0.2 12.35-0.38 9.95-0.95 7.9-2.7L7.9-2.7Q3.25-6.65 3.25-15.85 3.25-25.05 7.65-30.08 12.05-35.1 19-35.1L19-35.1 20.6-35Q23.75-34.7 25.43-33.85 27.1-33 27.7-32.35L27.7-32.35ZM43.51-6.4L43.51-6.4Q42.61-8.8 42.61-12L42.61-12Q42.61-18.15 46.06-21.68 49.51-25.2 54.71-25.2L54.71-25.2Q62.86-25.2 65.41-18.6L65.41-18.6Q66.36-16.2 66.36-13L66.36-13Q66.36-6.85 62.91-3.33 59.46 0.2 54.26 0.2L54.26 0.2Q46.11 0.2 43.51-6.4ZM45.86-12.35Q45.86-7.75 48.23-5.23 50.61-2.7 54.36-2.7 58.11-2.7 60.61-5.38 63.11-8.05 63.11-12.65 63.11-17.25 60.76-19.78 58.41-22.3 54.63-22.3 50.86-22.3 48.36-19.63 45.86-16.95 45.86-12.35ZM92.41-25.25L92.41-25.25Q95.36-25.25 98.01-23.5L98.01-23.5 98.01-37.25 101.26-37.5 101.26-1.15 101.01-1.15Q99.46-0.5 95.84-0.15 92.21 0.2 90.81 0.2L90.81 0.2Q86.61 0.2 83.86-1.9L83.86-1.9Q80.01-4.8 80.01-11.45 80.01-18.1 83.59-21.68 87.16-25.25 92.41-25.25ZM98.01-3.2L98.01-21.35Q95.51-22.3 93.11-22.3L93.11-22.3Q88.51-22.3 85.89-19.5 83.26-16.7 83.26-11.55 83.26-6.4 86.11-4.3L86.11-4.3Q88.16-2.7 91.29-2.7 94.41-2.7 98.01-3.2L98.01-3.2ZM117.17-28.75L114.77-28.65 114.82-31.5 114.82-33.8Q114.82-35 114.77-35.75L114.77-35.75 117.47-35.9Q117.47-32.65 117.22-29.4L117.22-29.4 117.17-28.75ZM148.98-24.5L148.18-21.7Q146.38-22.3 143.28-22.3 140.18-22.3 138.48-21.2 136.78-20.1 136.78-18.48 136.78-16.85 137.78-16.1 138.78-15.35 140.28-14.83 141.78-14.3 143.55-13.8 145.33-13.3 146.83-12.5L146.83-12.5Q150.33-10.7 150.33-7.15 150.33-3.6 147.9-1.7 145.48 0.2 140.83 0.2L140.83 0.2Q138.48 0.2 136.3-0.28 134.13-0.75 132.98-1.6L132.98-1.6 134.08-4.25Q135.23-3.25 138.73-2.8L138.73-2.8Q139.83-2.65 140.98-2.65L140.98-2.65Q143.58-2.65 145.33-3.73 147.08-4.8 147.08-7L147.08-7Q147.08-8.5 146.08-9.35 145.08-10.2 143.58-10.78 142.08-11.35 140.3-11.8 138.53-12.25 137.03-12.98 135.53-13.7 134.53-14.88 133.53-16.05 133.53-18.05L133.53-18.05Q133.53-21.3 136.03-23.25 138.53-25.2 142.73-25.2L142.73-25.2Q143.78-25.2 144.88-25.08 145.98-24.95 146.88-24.85L146.88-24.85 148.98-24.5ZM209.39-34.1L209.39-34.1 208.79-31.25Q204.94-32.1 202.24-32.1L202.24-32.1Q192.54-32.1 192.54-26.2L192.54-26.2Q192.54-23.95 193.97-22.75 195.39-21.55 197.57-20.78 199.74-20 202.24-19.38 204.74-18.75 206.89-17.7L206.89-17.7Q211.94-15.2 211.94-10.05 211.94-4.9 208.09-2.25L208.09-2.25Q204.79 0.05 199.39 0.05L199.39 0.05Q192.69 0.05 188.09-3L188.09-3 189.39-5.55Q190.74-4.6 193.24-3.78 195.74-2.95 198.09-2.95L198.09-2.95Q202.69-2.95 205.34-4.45L205.34-4.45Q208.54-6.3 208.54-9.75L208.54-9.75Q208.54-12.3 207.12-13.73 205.69-15.15 203.52-16.03 201.34-16.9 198.84-17.53 196.34-18.15 194.19-19.1L194.19-19.1Q189.14-21.3 189.14-25.65 189.14-30 192.14-32.55 195.14-35.1 200.64-35.1L200.64-35.1Q204.89-35.1 209.39-34.1ZM242.4-3.5Q240.75-1.85 238.72-1.03 236.7-0.2 235.25-0.1 233.8 0 232.4 0 231 0 229.35-0.25L229.35-0.25 229.35 12.25 226.1 12.5 226.1-23.7Q227.2-24.05 229.47-24.75 231.75-25.45 234.32-25.45 236.9-25.45 238.77-25.03 240.65-24.6 242.25-23.4L242.25-23.4Q246-20.5 246-13.8 246-7.1 242.4-3.5L242.4-3.5ZM229.35-21.7L229.35-2.8Q230.85-2.45 232.55-2.45L232.55-2.45Q237.45-2.45 240.1-5.35 242.75-8.25 242.75-13.5 242.75-18.75 240.05-21L240.05-21Q238.15-22.55 235.17-22.55 232.2-22.55 229.35-21.7L229.35-21.7ZM262.31-12.3L262.31-11.5Q262.31-2.7 270.71-2.7L270.71-2.7Q274.26-2.7 277.21-3.65L277.21-3.65Q277.96-3.9 278.26-4.05L278.26-4.05 279.01-1.4Q277.26-0.35 272.66 0.1L272.66 0.1Q271.36 0.2 269.91 0.2L269.91 0.2Q265.71 0.2 262.91-1.9L262.91-1.9Q259.06-4.75 259.06-11.4 259.06-18.05 262.53-21.63 266.01-25.2 270.96-25.2 275.91-25.2 278.41-22L278.41-22Q280.31-19.45 280.31-15.25L280.31-15.25Q280.31-14.25 280.21-13.15L280.21-13.15 262.36-13.15Q262.31-12.75 262.31-12.3L262.31-12.3ZM271.16-22.1L271.16-22.1Q268.06-22.1 265.86-20.23 263.66-18.35 262.81-15.4L262.81-15.4 277.36-15.4Q277.11-20.95 273.06-21.85L273.06-21.85Q272.16-22.1 271.16-22.1ZM296.41-12.3L296.41-11.5Q296.41-2.7 304.81-2.7L304.81-2.7Q308.36-2.7 311.31-3.65L311.31-3.65Q312.06-3.9 312.36-4.05L312.36-4.05 313.11-1.4Q311.36-0.35 306.76 0.1L306.76 0.1Q305.46 0.2 304.01 0.2L304.01 0.2Q299.81 0.2 297.01-1.9L297.01-1.9Q293.16-4.75 293.16-11.4 293.16-18.05 296.64-21.63 300.11-25.2 305.06-25.2 310.01-25.2 312.51-22L312.51-22Q314.41-19.45 314.41-15.25L314.41-15.25Q314.41-14.25 314.31-13.15L314.31-13.15 296.46-13.15Q296.41-12.75 296.41-12.3L296.41-12.3ZM305.26-22.1L305.26-22.1Q302.16-22.1 299.96-20.23 297.76-18.35 296.91-15.4L296.91-15.4 311.46-15.4Q311.21-20.95 307.16-21.85L307.16-21.85Q306.26-22.1 305.26-22.1ZM340.42-25.25L340.42-25.25Q343.37-25.25 346.02-23.5L346.02-23.5 346.02-37.25 349.27-37.5 349.27-1.15 349.02-1.15Q347.47-0.5 343.84-0.15 340.22 0.2 338.82 0.2L338.82 0.2Q334.62 0.2 331.87-1.9L331.87-1.9Q328.02-4.8 328.02-11.45 328.02-18.1 331.59-21.68 335.17-25.25 340.42-25.25ZM346.02-3.2L346.02-21.35Q343.52-22.3 341.12-22.3L341.12-22.3Q336.52-22.3 333.89-19.5 331.27-16.7 331.27-11.55 331.27-6.4 334.12-4.3L334.12-4.3Q336.17-2.7 339.29-2.7 342.42-2.7 346.02-3.2L346.02-3.2ZM389.08-25L392.33-25.25 392.33 0 389.08 0 389.08-25ZM390.58-31.7Q389.58-31.7 389.06-32.35 388.53-33 388.53-34 388.53-35 389.11-35.63 389.68-36.25 390.68-36.25 391.68-36.25 392.31-35.63 392.93-35 392.93-33.9 392.93-32.8 392.26-32.25 391.58-31.7 390.58-31.7ZM411.59-25.25L411.59-22.25Q415.34-25 418.69-25.15L418.69-25.15Q421.74-25.15 423.39-24.4 425.04-23.65 426.11-22.28 427.19-20.9 427.19-18.4L427.19-18.4 427.19 0 423.94 0 423.94-17.55Q423.94-19.4 423.14-20.4L423.14-20.4Q421.54-22.25 418.24-22.25L418.24-22.25Q415.09-22.1 411.59-20.2L411.59-20.2 411.59 0 408.34 0 408.34-25 411.59-25.25ZM494.55 0L490.9 0 470.95-30.5 471.2 0 468.05 0 468.05-35 471.7-35 491.6-4.5 491.4-35 494.55-35 494.55 0ZM511.96-12.3L511.96-11.5Q511.96-2.7 520.36-2.7L520.36-2.7Q523.91-2.7 526.86-3.65L526.86-3.65Q527.61-3.9 527.91-4.05L527.91-4.05 528.66-1.4Q526.91-0.35 522.31 0.1L522.31 0.1Q521.01 0.2 519.56 0.2L519.56 0.2Q515.36 0.2 512.56-1.9L512.56-1.9Q508.71-4.75 508.71-11.4 508.71-18.05 512.19-21.63 515.66-25.2 520.61-25.2 525.56-25.2 528.06-22L528.06-22Q529.96-19.45 529.96-15.25L529.96-15.25Q529.96-14.25 529.86-13.15L529.86-13.15 512.01-13.15Q511.96-12.75 511.96-12.3L511.96-12.3ZM520.81-22.1L520.81-22.1Q517.71-22.1 515.51-20.23 513.31-18.35 512.46-15.4L512.46-15.4 527.01-15.4Q526.76-20.95 522.71-21.85L522.71-21.85Q521.81-22.1 520.81-22.1ZM565.92 0L560.02-20.1 553.32 0 550.32 0 542.07-25 545.72-25.25 552.07-4.1 558.57-25 561.72-25.25 567.32-4.05 574.67-25 578.52-25.25 568.92 0 565.92 0ZM641.68 0L638.38-9.25 622.98-9.25 619.78 0 616.53 0 629.18-35 632.23-35 645.33 0 641.68 0ZM630.53-31.2L623.83-11.75 637.48-11.75 630.53-31.2ZM662.54-9.65L662.54-9.65Q658.84-11.5 658.84-16.6L658.84-16.6Q658.84-20.8 661.74-23 664.64-25.2 669.14-25.2L669.14-25.2Q670.34-25.2 672.09-24.95L672.09-24.95 681.49-25.2 681.39-23.3 675.94-23.3Q678.69-21.25 678.69-17.13 678.69-13 675.94-10.78 673.19-8.55 668.84-8.55L668.84-8.55Q666.04-8.55 664.19-9.05L664.19-9.05Q663.24-8.15 663.24-6.95L663.24-6.95Q663.24-5.25 665.11-4.5 666.99-3.75 669.54-3.4L669.54-3.4Q675.19-2.65 677.69-1.3L677.69-1.3Q681.29 0.7 681.29 4.85 681.29 9 677.34 11L677.34 11Q674.34 12.5 670.09 12.5 665.84 12.5 663.54 11.85L663.54 11.85Q657.49 10.1 657.49 5.35 657.49 0.6 662.84-2.7L662.84-2.7Q660.74-4.25 660.74-6.3 660.74-8.35 662.54-9.65ZM678.04 4.8L678.04 4.8Q678.04 1.55 673.74 0.3L673.74 0.3Q672.54-0.05 669.44-0.55 666.34-1.05 664.59-1.75L664.59-1.75Q660.74 1.45 660.74 4.45L660.74 4.45Q660.74 5.75 661.14 6.6 661.54 7.45 662.54 8.1L662.54 8.1Q664.74 9.6 669.24 9.6L669.24 9.6Q675.14 9.6 677.24 7.1L677.24 7.1Q678.04 6.15 678.04 4.8ZM675.29-17.25L675.29-17.25Q675.29-22.55 668.99-22.55L668.99-22.55Q665.99-22.55 664.04-21.18 662.09-19.8 662.09-16.98 662.09-14.15 663.49-12.68 664.89-11.2 668.21-11.2 671.54-11.2 673.41-12.8 675.29-14.4 675.29-17.25ZM696.25-12.3L696.25-11.5Q696.25-2.7 704.65-2.7L704.65-2.7Q708.2-2.7 711.15-3.65L711.15-3.65Q711.9-3.9 712.2-4.05L712.2-4.05 712.95-1.4Q711.2-0.35 706.6 0.1L706.6 0.1Q705.3 0.2 703.85 0.2L703.85 0.2Q699.65 0.2 696.85-1.9L696.85-1.9Q693-4.75 693-11.4 693-18.05 696.47-21.63 699.95-25.2 704.9-25.2 709.85-25.2 712.35-22L712.35-22Q714.25-19.45 714.25-15.25L714.25-15.25Q714.25-14.25 714.15-13.15L714.15-13.15 696.3-13.15Q696.25-12.75 696.25-12.3L696.25-12.3ZM705.1-22.1L705.1-22.1Q702-22.1 699.8-20.23 697.6-18.35 696.75-15.4L696.75-15.4 711.3-15.4Q711.05-20.95 707-21.85L707-21.85Q706.1-22.1 705.1-22.1ZM765.11 0L761.96 0 761.96-32 752.06-32 752.31-35 774.96-35 774.71-32 765.11-32 765.11 0ZM786.37-12.3L786.37-11.5Q786.37-2.7 794.77-2.7L794.77-2.7Q798.32-2.7 801.27-3.65L801.27-3.65Q802.02-3.9 802.32-4.05L802.32-4.05 803.07-1.4Q801.32-0.35 796.72 0.1L796.72 0.1Q795.42 0.2 793.97 0.2L793.97 0.2Q789.77 0.2 786.97-1.9L786.97-1.9Q783.12-4.75 783.12-11.4 783.12-18.05 786.59-21.63 790.07-25.2 795.02-25.2 799.97-25.2 802.47-22L802.47-22Q804.37-19.45 804.37-15.25L804.37-15.25Q804.37-14.25 804.27-13.15L804.27-13.15 786.42-13.15Q786.37-12.75 786.37-12.3L786.37-12.3ZM795.22-22.1L795.22-22.1Q792.12-22.1 789.92-20.23 787.72-18.35 786.87-15.4L786.87-15.4 801.42-15.4Q801.17-20.95 797.12-21.85L797.12-21.85Q796.22-22.1 795.22-22.1ZM834.27-16.4L834.02-21.65Q831.97-22.3 829.82-22.3L829.82-22.3Q825.47-22.3 822.85-19.5 820.22-16.7 820.22-11.6L820.22-11.6Q820.22-2.7 828.47-2.7L828.47-2.7Q831.77-2.7 835.27-3.8L835.27-3.8Q835.97-4 836.12-4.1L836.12-4.1 836.92-1.4Q835.17-0.35 830.57 0.1L830.57 0.1Q829.27 0.2 827.82 0.2L827.82 0.2Q823.57 0.2 820.82-1.9L820.82-1.9Q816.97-4.8 816.97-11.45 816.97-18.1 820.55-21.68 824.12-25.25 829.77-25.25L829.77-25.25Q831.57-25.25 833.6-24.78 835.62-24.3 836.72-23.3L836.72-23.3 836.72-16.75 834.27-16.4ZM854.58-37.5L854.58-22.15Q858.53-25 862.18-25.15L862.18-25.15Q865.28-25.15 866.93-24.4 868.58-23.65 869.63-22.28 870.68-20.9 870.68-18.4L870.68-18.4 870.68 0 867.43 0 867.43-17.55Q867.43-19.4 866.63-20.4L866.63-20.4Q865.03-22.25 861.73-22.25L861.73-22.25Q858.48-22.1 854.58-20.15L854.58-20.15 854.58 0 851.33 0 851.33-37.25 854.58-37.5ZM888.34-25.25L888.34-22.25Q892.09-25 895.44-25.15L895.44-25.15Q898.49-25.15 900.14-24.4 901.79-23.65 902.86-22.28 903.94-20.9 903.94-18.4L903.94-18.4 903.94 0 900.69 0 900.69-17.55Q900.69-19.4 899.89-20.4L899.89-20.4Q898.29-22.25 894.99-22.25L894.99-22.25Q891.84-22.1 888.34-20.2L888.34-20.2 888.34 0 885.09 0 885.09-25 888.34-25.25ZM919.39-6.4L919.39-6.4Q918.49-8.8 918.49-12L918.49-12Q918.49-18.15 921.94-21.68 925.39-25.2 930.59-25.2L930.59-25.2Q938.74-25.2 941.29-18.6L941.29-18.6Q942.24-16.2 942.24-13L942.24-13Q942.24-6.85 938.79-3.33 935.34 0.2 930.14 0.2L930.14 0.2Q921.99 0.2 919.39-6.4ZM921.74-12.35Q921.74-7.75 924.12-5.23 926.49-2.7 930.24-2.7 933.99-2.7 936.49-5.38 938.99-8.05 938.99-12.65 938.99-17.25 936.64-19.78 934.29-22.3 930.52-22.3 926.74-22.3 924.24-19.63 921.74-16.95 921.74-12.35ZM959.45 0L956.2 0 956.2-37.25 959.45-37.5 959.45 0ZM974.31-6.4L974.31-6.4Q973.41-8.8 973.41-12L973.41-12Q973.41-18.15 976.86-21.68 980.31-25.2 985.51-25.2L985.51-25.2Q993.66-25.2 996.21-18.6L996.21-18.6Q997.16-16.2 997.16-13L997.16-13Q997.16-6.85 993.71-3.33 990.26 0.2 985.06 0.2L985.06 0.2Q976.91 0.2 974.31-6.4ZM976.66-12.35Q976.66-7.75 979.03-5.23 981.41-2.7 985.16-2.7 988.91-2.7 991.41-5.38 993.91-8.05 993.91-12.65 993.91-17.25 991.56-19.78 989.21-22.3 985.43-22.3 981.66-22.3 979.16-19.63 976.66-16.95 976.66-12.35ZM1013.91-9.65L1013.91-9.65Q1010.21-11.5 1010.21-16.6L1010.21-16.6Q1010.21-20.8 1013.11-23 1016.01-25.2 1020.51-25.2L1020.51-25.2Q1021.71-25.2 1023.46-24.95L1023.46-24.95 1032.86-25.2 1032.76-23.3 1027.31-23.3Q1030.06-21.25 1030.06-17.13 1030.06-13 1027.31-10.78 1024.56-8.55 1020.21-8.55L1020.21-8.55Q1017.41-8.55 1015.56-9.05L1015.56-9.05Q1014.61-8.15 1014.61-6.95L1014.61-6.95Q1014.61-5.25 1016.49-4.5 1018.36-3.75 1020.91-3.4L1020.91-3.4Q1026.56-2.65 1029.06-1.3L1029.06-1.3Q1032.66 0.7 1032.66 4.85 1032.66 9 1028.71 11L1028.71 11Q1025.71 12.5 1021.46 12.5 1017.21 12.5 1014.91 11.85L1014.91 11.85Q1008.86 10.1 1008.86 5.35 1008.86 0.6 1014.21-2.7L1014.21-2.7Q1012.11-4.25 1012.11-6.3 1012.11-8.35 1013.91-9.65ZM1029.41 4.8L1029.41 4.8Q1029.41 1.55 1025.11 0.3L1025.11 0.3Q1023.91-0.05 1020.81-0.55 1017.71-1.05 1015.96-1.75L1015.96-1.75Q1012.11 1.45 1012.11 4.45L1012.11 4.45Q1012.11 5.75 1012.51 6.6 1012.91 7.45 1013.91 8.1L1013.91 8.1Q1016.11 9.6 1020.61 9.6L1020.61 9.6Q1026.51 9.6 1028.61 7.1L1028.61 7.1Q1029.41 6.15 1029.41 4.8ZM1026.66-17.25L1026.66-17.25Q1026.66-22.55 1020.36-22.55L1020.36-22.55Q1017.36-22.55 1015.41-21.18 1013.46-19.8 1013.46-16.98 1013.46-14.15 1014.86-12.68 1016.26-11.2 1019.59-11.2 1022.91-11.2 1024.79-12.8 1026.66-14.4 1026.66-17.25ZM1054.47 0L1045.57-25 1049.22-25.25 1056.67-2.35 1066.27-25 1069.77-25 1053.17 12.5 1050.12 12.5 1055.62 0 1054.47 0Z" opacity="1" transform="matrix(1,0,0,1,0,0)" fill="#0718c4" class="slogan-text-1" data-fill-palette-color="secondary" id="text-1"></path></svg></g></svg></g></svg></g></svg></g><g transform="matrix(1,0,0,1,97.1255818256392,0)"><svg viewBox="0 0 201.26883634872158 201.26883634872158" height="201.26883634872158" width="201.26883634872158"><g><svg viewBox="0 0 201.26883634872158 201.26883634872158" height="201.26883634872158" width="201.26883634872158"><g transform="matrix(1,0,0,1,53.194898499791954,62.30105199940469)"><svg viewBox="0 0 94.87903934913767 76.6667323499122" height="76.6667323499122" width="94.87903934913767"><g><svg xmlns="http://www.w3.org/2000/svg" xmlns:xlink="http://www.w3.org/1999/xlink" version="1.1" x="0" y="0" viewBox="0 49.1 511.97510805067213 413.70000000000005" style="enable-background:new 0 0 512 512;" xml:space="preserve" height="76.6667323499122" width="94.87903934913767" class="icon-z$-0" data-fill-palette-color="accent" id="z$-0"><g fill="#0718c4" data-fill-palette-color="accent"><path d="M112 358.7c23.2-9.7 48.1-15.2 73.7-16.5v-64.1h-85.1C101.6 306.9 105.5 334.3 112 358.7z" fill="#0718c4" data-fill-palette-color="accent"></path><path d="M100.7 254.8h85.1v-64.6c-25.6-1.3-50.5-6.8-73.6-16.4C105.6 198.3 101.6 225.9 100.7 254.8z" fill="#0718c4" data-fill-palette-color="accent"></path><path d="M119.2 151.4c20.9 9 43.4 14.2 66.6 15.5V70.1C158.7 77.1 134.8 107.8 119.2 151.4z" fill="#0718c4" data-fill-palette-color="accent"></path><path d="M90.6 163.3c-14.4-8-27.9-17.7-40.3-28.8C21.2 166.8 2.7 208.7 0 254.8h77.4C78.3 221.7 82.9 190.7 90.6 163.3z" fill="#0718c4" data-fill-palette-color="accent"></path><path d="M132.2 79.7c-24.3 8.5-46.4 21.6-65.4 38.3 9.7 8.6 20.1 16.1 31.1 22.5C107 116.2 118.6 95.6 132.2 79.7z" fill="#0718c4" data-fill-palette-color="accent"></path><path d="M185.8 462.8v-97.3c-23.3 1.3-45.8 6.6-66.7 15.6C134.6 425 158.6 455.8 185.8 462.8z" fill="#0718c4" data-fill-palette-color="accent"></path><path d="M233.1 101.5l0.9-7.6 7.4-2.2c0.2-0.1 0.4-0.1 0.6-0.2-8.8-9.5-19.9-18-32.9-21.4v97c9.5-0.5 18.8-1.8 28-3.7C230.3 128.1 233 102.1 233.1 101.5z" fill="#0718c4" data-fill-palette-color="accent"></path><path d="M66.5 414.7c19 16.8 41.2 30 65.6 38.5-13.6-15.9-25.3-36.7-34.4-61.2C86.7 398.5 76.3 406 66.5 414.7z" fill="#0718c4" data-fill-palette-color="accent"></path><path d="M77.4 278.1H0c2.7 46 21.1 87.8 50 120.1 12.5-11.2 26-21 40.5-29C82.9 341.9 78.3 311.1 77.4 278.1z" fill="#0718c4" data-fill-palette-color="accent"></path><path d="M209.1 365.5v97.3c27.3-6.9 51.4-37.6 67-81.6C255 372.2 232.4 366.9 209.1 365.5z" fill="#0718c4" data-fill-palette-color="accent"></path><path d="M317.1 151.9c6.3 29.7 23.3 67 66.7 94.3 43.4-27.3 60.4-64.6 66.7-94.3-24.6-9.7-47-20.4-66.7-32.2C364 131.5 341.7 142.3 317.1 151.9z" fill="#0718c4" data-fill-palette-color="accent"></path><path d="M242.6 186.1c-11 2.3-22.2 3.7-33.5 4.3v64.4h66.7C259.3 231.8 249 208 242.6 186.1z" fill="#0718c4" data-fill-palette-color="accent"></path><path d="M511.8 111.7c-73.1-22.6-112.3-49.6-128.1-62.6-15.8 13-54.9 40-128.1 62.6-1.3 30.5 2.6 144.3 128.1 200.3C509.2 256 513.2 142.2 511.8 111.7zM475.2 146.2c-5.6 37.1-25 88.7-85.6 123.6l-5.8 3.4-5.8-3.4c-60.6-34.9-80-86.5-85.6-123.7l-1.4-9.3 8.8-3.3c29.4-11 55.6-23.5 77.8-37.3l6.1-3.8 6.1 3.8c22.3 13.8 48.5 26.4 77.8 37.4l8.8 3.3L475.2 146.2z" fill="#0718c4" data-fill-palette-color="accent"></path><path d="M294.1 278.1h-85.1v64.1c25.7 1.3 50.6 6.8 73.8 16.5C289.3 334.4 293.3 307.1 294.1 278.1z" fill="#0718c4" data-fill-palette-color="accent"></path><path d="M316.5 298.1c-1.9 25.4-6.2 49.2-12.4 71 14.6 8.1 28.3 18 41 29.4 15.9-17.8 28.6-38.6 37.3-61.7l-3.2-1.4C354.3 324.9 333.7 312.1 316.5 298.1z" fill="#0718c4" data-fill-palette-color="accent"></path><path d="M261.7 453.8c24.8-8.5 47.4-21.8 66.8-38.9-9.9-8.8-20.5-16.5-31.8-23C287.5 416.7 275.6 437.8 261.7 453.8z" fill="#0718c4" data-fill-palette-color="accent"></path></g></svg></g></svg></g><g><path d="M4.148 67.776v0c1.435-4.183 4.679-5.408 9.733-3.675v0c2.316 0.794 3.938 2.017 4.866 3.669 0.937 1.647 1.096 3.373 0.477 5.177v0c-0.658 1.918-1.69 3.221-3.096 3.909v0c-1.669 0.795-3.762 0.762-6.28-0.102-2.511-0.861-4.242-2.125-5.194-3.791-0.952-1.666-1.12-3.395-0.506-5.187zM15.463 75.464v0c1.145-0.482 1.973-1.467 2.484-2.955v0c0.483-1.407 0.32-2.753-0.487-4.039-0.799-1.289-2.242-2.292-4.331-3.008-2.082-0.714-3.812-0.779-5.191-0.194v0c-1.169 0.488-2.006 1.47-2.512 2.946v0c-0.478 1.394-0.313 2.742 0.496 4.042 0.809 1.3 2.261 2.309 4.356 3.027 2.088 0.716 3.816 0.777 5.185 0.181z" fill="#0718c4" data-fill-palette-color="accent"></path><path d="M23.782 62.072l-0.727 1.347-13.865-7.489 1.55-2.87c0.878-1.626 1.772-2.663 2.682-3.111v0c1.049-0.525 2.296-0.398 3.739 0.382v0c2.4 1.296 3.365 3.012 2.895 5.146v0c-0.153 0.691-0.433 1.411-0.838 2.162v0l-0.823 1.523zM11.779 53.747l-0.77 1.426 6.294 3.4 0.771-1.426c0.64-1.185 0.861-2.211 0.661-3.077-0.202-0.875-0.896-1.632-2.082-2.273-1.18-0.637-2.126-0.766-2.839-0.385-0.716 0.371-1.394 1.15-2.035 2.335z" fill="#0718c4" data-fill-palette-color="accent"></path><path d="M32.56 48.613l-0.852 1.124-11.481-8.705-2.696 3.556-1.01-0.904 6.16-8.124 1.01 0.904-2.611 3.444z" fill="#0718c4" data-fill-palette-color="accent"></path><path d="M27.644 30.45l9.853 3.359-2.925-9.895 1.143-1.078 3.171 11.395 3.632 3.85-1.026 0.968-3.646-3.864-11.396-3.609z" fill="#0718c4" data-fill-palette-color="accent"></path><path d="M57.263 27.163l-7.651-3.637 0.522 8.328-1.312 0.863-0.428-9.767-7.917-3.605 1.462-0.963 6.777 3.254-0.458-7.412 1.32-0.869 0.35 8.849 8.798 3.996z" fill="#0718c4" data-fill-palette-color="accent"></path><path d="M62.699 6.968l0.467 1.272-5.946 2.754 2.489 5.375 5.511-2.553 0.468 1.272-5.411 2.506 2.43 5.248 6.455-2.99 0.468 1.272-7.744 3.587-6.623-14.299z" fill="#0718c4" data-fill-palette-color="accent"></path><path d="M84.274 16.932l-1.579 0.448-12.389-10.755 3.861 13.174-1.367 0.387-4.299-15.16 1.578-0.448 12.363 10.773-3.834-13.191 1.366-0.388z" fill="#0718c4" data-fill-palette-color="accent"></path><path d="M93.058 0.181v0c4.405-0.39 6.843 2.076 7.314 7.398v0c0.216 2.438-0.242 4.417-1.373 5.937-1.124 1.526-2.636 2.373-4.537 2.541v0c-2.02 0.179-3.63-0.235-4.83-1.24v0c-1.405-1.202-2.225-3.128-2.46-5.779-0.234-2.644 0.217-4.74 1.352-6.286 1.135-1.547 2.647-2.404 4.534-2.571zM90.633 13.644v0c0.906 0.851 2.142 1.207 3.71 1.068v0c1.482-0.131 2.646-0.827 3.492-2.087 0.853-1.254 1.183-2.981 0.988-5.18-0.194-2.193-0.838-3.8-1.933-4.821v0c-0.921-0.869-2.158-1.235-3.713-1.098v0c-1.468 0.13-2.632 0.829-3.491 2.097-0.859 1.268-1.191 3.005-0.995 5.211 0.195 2.199 0.842 3.803 1.942 4.81z" fill="#0718c4" data-fill-palette-color="accent"></path><path d="M116.318 16.806l-1.634-0.154-7.659-14.508-1.166 13.678-1.415-0.133 1.476-15.689 1.634 0.154 7.628 14.515 1.197-13.685 1.415 0.133z" fill="#0718c4" data-fill-palette-color="accent"></path><path d="M143.248 10.269l-0.903 0.737c-0.227-0.508-0.783-1.035-1.667-1.58v0c-0.323-0.202-0.764-0.41-1.325-0.624-0.561-0.214-1.204-0.306-1.93-0.277-0.723 0.024-1.432 0.224-2.125 0.602v0c-1.493 0.843-2.668 2.387-3.525 4.63-0.857 2.243-0.946 4.008-0.267 5.296v0c0.464 0.898 1.272 1.568 2.424 2.008 1.159 0.443 2.327 0.721 3.505 0.835v0l2.013-4.961 1.159 0.443-2.168 5.673c-0.767 0.157-1.989 0.011-3.667-0.437v0c-0.47-0.115-0.954-0.268-1.453-0.458-0.492-0.188-1.044-0.492-1.655-0.911-0.611-0.419-1.113-0.982-1.507-1.69v0c-0.879-1.607-0.825-3.7 0.161-6.279 0.986-2.58 2.364-4.338 4.135-5.275 1.772-0.937 3.633-1.033 5.583-0.287v0l0.659 0.294c0.851 0.425 1.466 0.846 1.842 1.261 0.377 0.415 0.614 0.749 0.711 1z" fill="#0718c4" data-fill-palette-color="accent"></path><path d="M154.987 20.334v0c-1.089 1.867-2.461 2.742-4.115 2.626v0l-0.691 7.914-1.417-0.827 0.621-7.399c-0.51-0.197-1.045-0.459-1.604-0.785v0l-1.495-0.872-3.312 5.678-1.322-0.772 7.941-13.611 2.817 1.644c1.584 0.924 2.595 1.846 3.032 2.765v0c0.504 1.043 0.352 2.256-0.455 3.639zM151.69 14.946l-1.4-0.817-3.378 5.79 1.4 0.817c1.152 0.672 2.155 0.945 3.009 0.818 0.86-0.124 1.626-0.762 2.298-1.914v0c0.861-1.475 0.686-2.724-0.524-3.747v0c-0.395-0.315-0.863-0.631-1.405-0.947z" fill="#0718c4" data-fill-palette-color="accent"></path><path d="M167.481 24.692v0c3.394 2.835 3.379 6.303-0.046 10.403v0c-1.569 1.879-3.291 2.957-5.165 3.234-1.873 0.287-3.542-0.182-5.006-1.405v0c-1.556-1.3-2.404-2.73-2.544-4.289v0c-0.146-1.843 0.633-3.786 2.339-5.828 1.702-2.037 3.501-3.203 5.397-3.497 1.896-0.293 3.571 0.167 5.025 1.382zM156.257 32.511v0c0.04 1.242 0.665 2.367 1.873 3.377v0c1.142 0.954 2.457 1.283 3.946 0.988 1.49-0.285 2.942-1.275 4.357-2.969 1.411-1.689 2.09-3.282 2.036-4.779v0c-0.038-1.266-0.656-2.399-1.853-3.399v0c-1.131-0.945-2.449-1.272-3.953-0.981-1.503 0.291-2.965 1.287-4.384 2.986-1.415 1.694-2.089 3.287-2.022 4.777z" fill="#0718c4" data-fill-palette-color="accent"></path><path d="M183.219 41.439l0.91 1.091-6.916 5.766c-1.798 1.499-3.503 2.209-5.116 2.13v0c-1.418-0.086-2.673-0.785-3.767-2.096-1.089-1.306-1.612-2.564-1.569-3.773v0c0.076-1.627 1.134-3.29 3.173-4.99v0l6.916-5.767 0.98 1.176-6.9 5.754c-1.67 1.393-2.563 2.723-2.678 3.991v0c-0.086 0.949 0.279 1.912 1.095 2.891v0c1.222 1.465 2.799 1.8 4.732 1.004v0c0.688-0.279 1.435-0.753 2.239-1.424v0z" fill="#0718c4" data-fill-palette-color="accent"></path><path d="M174.928 57.537l-0.776-1.32 13.583-7.987 1.654 2.811c0.937 1.593 1.361 2.894 1.275 3.905v0c-0.094 1.169-0.848 2.17-2.263 3.002v0c-2.352 1.383-4.319 1.321-5.901-0.186v0c-0.512-0.488-0.984-1.101-1.417-1.837v0l-0.877-1.492zM188.264 51.575l-0.822-1.397-6.167 3.626 0.822 1.397c0.683 1.161 1.446 1.881 2.291 2.159 0.853 0.28 1.861 0.078 3.022-0.605 1.156-0.68 1.755-1.423 1.799-2.23 0.053-0.805-0.262-1.788-0.945-2.95z" fill="#0718c4" data-fill-palette-color="accent"></path><path d="M197.481 69.725v0l-1.291 0.219c-0.188-1.166-0.43-2.125-0.726-2.876v0c-1.07-2.711-2.427-3.743-4.07-3.094v0c-0.627 0.247-1.029 0.635-1.208 1.165-0.178 0.529-0.256 1.141-0.234 1.834 0.023 0.694 0.086 1.425 0.189 2.195 0.1 0.763 0.12 1.505 0.06 2.224v0c-0.139 1.683-0.929 2.808-2.368 3.376-1.439 0.568-2.74 0.461-3.902-0.321v0c-1.004-0.672-1.803-1.762-2.398-3.27v0c-0.737-1.868-0.933-3.611-0.59-5.231v0l1.283 0.117c-0.117 0.484-0.153 1.121-0.106 1.913 0.045 0.785 0.197 1.507 0.456 2.165v0c0.507 1.284 1.114 2.214 1.821 2.788v0c0.867 0.69 1.785 0.845 2.753 0.463v0c0.707-0.279 1.181-0.695 1.422-1.249 0.247-0.556 0.371-1.186 0.373-1.89 0.002-0.704-0.047-1.437-0.148-2.2-0.097-0.772-0.133-1.511-0.11-2.216v0c0.059-1.651 0.696-2.716 1.912-3.195 1.216-0.48 2.343-0.44 3.381 0.118 1.044 0.556 1.87 1.604 2.477 3.142v0c0.468 1.185 0.809 2.459 1.024 3.823z" fill="#0718c4" data-fill-palette-color="accent"></path><path d="M23.273 131.194v0c1.435 4.183-0.375 7.141-5.429 8.875v0c-2.316 0.794-4.347 0.825-6.093 0.091-1.751-0.725-2.936-1.99-3.554-3.794v0c-0.658-1.918-0.643-3.58 0.045-4.987v0c0.829-1.652 2.503-2.91 5.02-3.774 2.511-0.861 4.654-0.926 6.428-0.195 1.774 0.731 2.968 1.993 3.583 3.784zM9.621 132.069v0c-0.609 1.083-0.658 2.369-0.147 3.858v0c0.483 1.407 1.437 2.37 2.863 2.889 1.422 0.528 3.177 0.433 5.266-0.283 2.082-0.714 3.488-1.725 4.217-3.032v0c0.623-1.102 0.682-2.392 0.175-3.868v0c-0.478-1.394-1.436-2.356-2.873-2.886-1.437-0.53-3.203-0.435-5.297 0.283-2.088 0.716-3.49 1.729-4.204 3.039z" fill="#0718c4" data-fill-palette-color="accent"></path><path d="M13.683 148.912l-0.727-1.346 13.865-7.489 1.55 2.87c0.878 1.626 1.255 2.942 1.132 3.948v0c-0.136 1.165-0.926 2.138-2.37 2.918v0c-2.4 1.296-4.364 1.163-5.891-0.401v0c-0.494-0.507-0.943-1.136-1.349-1.887v0l-0.822-1.522zM27.227 143.439l-0.771-1.426-6.294 3.4 0.771 1.426c0.64 1.185 1.377 1.932 2.21 2.24 0.842 0.311 1.856 0.146 3.042-0.494 1.18-0.637 1.806-1.358 1.879-2.164 0.082-0.802-0.197-1.796-0.837-2.982z" fill="#0718c4" data-fill-palette-color="accent"></path><path d="M23.414 163.852l-0.853-1.124 11.481-8.705-2.696-3.556 1.143-0.728 6.159 8.124-1.142 0.729-2.612-3.445z" fill="#0718c4" data-fill-palette-color="accent"></path><path d="M41.394 160.504l-2.78 10.032 9.708-3.496 1.143 1.078-11.192 3.83-3.632 3.85-1.026-0.968 3.646-3.865 2.939-11.587z" fill="#0718c4" data-fill-palette-color="accent"></path><path d="M50.953 187.956l0.313-8.466-7.442 3.774-1.312-0.863 8.801-4.257 0.179-8.698 1.462 0.963-0.307 7.511 6.626-3.353 1.32 0.869-7.988 3.821-0.189 9.661z" fill="#0718c4" data-fill-palette-color="accent"></path><path d="M71.12 180.379l-0.668 1.18-5.946-2.755-2.489 5.375 5.51 2.552-0.667 1.18-5.411-2.506-2.43 5.247 6.454 2.99-0.667 1.179-7.744-3.587 6.622-14.299z" fill="#0718c4" data-fill-palette-color="accent"></path><path d="M81.142 199.64l-1.579-0.447-4.898-15.658-3.63 13.239-1.367-0.388 4.3-15.16 1.579 0.448 4.866 15.659 3.662-13.24 1.367 0.387z" fill="#0718c4" data-fill-palette-color="accent"></path><path d="M94.84 185.21v0c4.405 0.39 6.372 3.246 5.901 8.567v0c-0.216 2.438-1.014 4.306-2.394 5.604-1.374 1.305-3.012 1.873-4.912 1.705v0c-2.02-0.179-3.532-0.868-4.538-2.069v0c-1.173-1.43-1.642-3.47-1.407-6.121 0.234-2.644 1.046-4.628 2.435-5.952 1.389-1.323 3.027-1.902 4.915-1.734zM90.089 198.038v0c0.742 0.996 1.897 1.564 3.465 1.702v0c1.482 0.131 2.75-0.349 3.804-1.441 1.06-1.085 1.688-2.727 1.882-4.926 0.194-2.193-0.158-3.888-1.057-5.085v0c-0.754-1.018-1.908-1.595-3.462-1.733v0c-1.468-0.13-2.737 0.354-3.805 1.451-1.068 1.097-1.7 2.749-1.895 4.955-0.195 2.199 0.161 3.891 1.068 5.077z" fill="#0718c4" data-fill-palette-color="accent"></path><path d="M117.393 200.152l-1.634 0.154-10.23-12.826 1.405 13.656-1.415 0.133-1.476-15.689 1.634-0.154 10.202 12.838-1.376-13.668 1.414-0.133z" fill="#0718c4" data-fill-palette-color="accent"></path><path d="M136.954 178.786l-0.182 1.151c-0.508-0.227-1.273-0.249-2.295-0.066v0c-0.375 0.065-0.843 0.204-1.404 0.419-0.561 0.214-1.102 0.574-1.622 1.08-0.523 0.5-0.917 1.122-1.183 1.866v0c-0.551 1.624-0.397 3.558 0.459 5.801 0.857 2.243 1.968 3.618 3.333 4.125v0c0.945 0.36 1.993 0.32 3.146-0.12 1.159-0.443 2.215-1.014 3.168-1.714v0l-1.807-5.04 1.159-0.443 2.167 5.674c-0.467 0.628-1.475 1.335-3.024 2.119v0c-0.427 0.227-0.89 0.436-1.389 0.627-0.492 0.188-1.106 0.33-1.841 0.425-0.735 0.095-1.485 0.01-2.25-0.255v0c-1.726-0.612-3.082-2.207-4.067-4.786-0.986-2.58-1.13-4.809-0.434-6.689 0.696-1.88 2.019-3.192 3.969-3.937v0l0.687-0.22c0.918-0.251 1.656-0.347 2.214-0.288 0.558 0.058 0.956 0.149 1.196 0.271z" fill="#0718c4" data-fill-palette-color="accent"></path><path d="M149.155 175.2v0c1.089 1.867 1.176 3.492 0.261 4.875v0l6.549 4.495-1.417 0.827-6.135-4.181c-0.423 0.347-0.914 0.684-1.472 1.009v0l-1.495 0.873 3.312 5.677-1.322 0.772-7.941-13.611 2.817-1.644c1.584-0.924 2.884-1.351 3.899-1.278v0c1.156 0.075 2.137 0.804 2.944 2.186zM142.842 175.419l-1.4 0.817 3.378 5.79 1.4-0.817c1.152-0.672 1.883-1.411 2.193-2.217 0.315-0.81 0.137-1.79-0.535-2.943v0c-0.861-1.475-2.034-1.937-3.52-1.387v0c-0.469 0.189-0.974 0.441-1.516 0.757z" fill="#0718c4" data-fill-palette-color="accent"></path><path d="M154.52 165.321v0c3.394-2.835 6.804-2.202 10.229 1.898v0c1.569 1.879 2.323 3.765 2.262 5.658-0.052 1.894-0.809 3.453-2.273 4.676v0c-1.556 1.3-3.114 1.88-4.674 1.74v0c-1.84-0.184-3.613-1.297-5.319-3.34-1.702-2.037-2.528-4.015-2.479-5.933 0.049-1.918 0.8-3.484 2.254-4.699zM160.216 177.758v0c1.229 0.181 2.448-0.233 3.656-1.242v0c1.142-0.954 1.7-2.189 1.675-3.706-0.015-1.517-0.731-3.122-2.146-4.817-1.411-1.689-2.858-2.641-4.339-2.854v0c-1.252-0.188-2.477 0.218-3.676 1.218v0c-1.131 0.945-1.688 2.183-1.668 3.715 0.019 1.531 0.738 3.147 2.157 4.846 1.415 1.694 2.862 2.641 4.341 2.84z" fill="#0718c4" data-fill-palette-color="accent"></path><path d="M167.829 151.259l0.91-1.091 6.916 5.766c1.798 1.499 2.803 3.049 3.014 4.65v0c0.17 1.41-0.291 2.771-1.385 4.082-1.089 1.306-2.232 2.047-3.428 2.222v0c-1.614 0.217-3.441-0.524-5.48-2.224v0l-6.916-5.767 0.98-1.176 6.901 5.754c1.67 1.393 3.139 2.031 4.407 1.917v0c0.949-0.086 1.831-0.618 2.648-1.597v0c1.222-1.465 1.267-3.077 0.137-4.836v0c-0.398-0.627-0.999-1.276-1.803-1.946v0z" fill="#0718c4" data-fill-palette-color="accent"></path><path d="M184.822 153.811l-0.776 1.32-13.583-7.988 1.653-2.812c0.937-1.593 1.867-2.597 2.793-3.012v0c1.068-0.486 2.309-0.314 3.723 0.518v0c2.352 1.383 3.254 3.132 2.706 5.248v0c-0.178 0.685-0.484 1.395-0.917 2.13v0l-0.877 1.492zM173.13 145.055l-0.822 1.397 6.167 3.627 0.821-1.398c0.683-1.161 0.941-2.178 0.773-3.051-0.17-0.882-0.836-1.664-1.998-2.346-1.156-0.68-2.097-0.842-2.823-0.489-0.729 0.345-1.435 1.098-2.118 2.26z" fill="#0718c4" data-fill-palette-color="accent"></path><path d="M179.604 128.752v0l1.092 0.721c-0.659 0.98-1.137 1.846-1.433 2.597v0c-1.07 2.711-0.782 4.392 0.862 5.04v0c0.627 0.247 1.186 0.238 1.678-0.026 0.492-0.265 0.966-0.659 1.423-1.181 0.457-0.522 0.911-1.1 1.361-1.733 0.448-0.626 0.939-1.182 1.474-1.666v0c1.251-1.134 2.596-1.418 4.036-0.849 1.439 0.568 2.317 1.534 2.631 2.899v0c0.274 1.177 0.114 2.519-0.481 4.026v0c-0.737 1.868-1.784 3.276-3.14 4.225v0l-0.857-0.962c0.416-0.273 0.877-0.715 1.383-1.326 0.504-0.604 0.885-1.235 1.145-1.893v0c0.507-1.284 0.698-2.378 0.573-3.28v0c-0.163-1.097-0.728-1.836-1.695-2.218v0c-0.707-0.279-1.338-0.298-1.892-0.058-0.56 0.238-1.081 0.613-1.563 1.126-0.482 0.513-0.947 1.082-1.394 1.709-0.457 0.63-0.934 1.195-1.432 1.694v0c-1.17 1.166-2.363 1.509-3.579 1.029-1.216-0.48-2.013-1.278-2.39-2.394-0.383-1.119-0.271-2.448 0.336-3.987v0c0.468-1.185 1.088-2.349 1.862-3.493z" fill="#0718c4" data-fill-palette-color="accent"></path><path d="M1.951 102.765c0-3.342 2.709-6.051 6.052-6.051 3.342 0 6.051 2.709 6.051 6.051 0 3.342-2.709 6.051-6.051 6.051-3.342 0-6.051-2.709-6.052-6.051z" fill="#0718c4" data-fill-palette-color="accent"></path><path d="M187.215 102.765c0-3.342 2.709-6.051 6.051-6.051 3.342 0 6.051 2.709 6.052 6.051 0 3.342-2.709 6.051-6.052 6.051-3.342 0-6.051-2.709-6.051-6.051z" fill="#0718c4" data-fill-palette-color="accent"></path></g></svg></g></svg></g><g></g></svg></g><defs></defs></svg><rect width="356.0455908096195" height="247.2" fill="none" stroke="none" visibility="hidden"></rect></g></svg></g></svg>