<svg xmlns="http://www.w3.org/2000/svg" version="1.1" xmlns:xlink="http://www.w3.org/1999/xlink" xmlns:svgjs="http://svgjs.dev/svgjs" width="1000" height="1000" viewBox="0 0 1000 1000"><rect width="1000" height="1000" fill="#000000"></rect><g transform="matrix(0.7,0,0,0.7,149.65000000000003,149.6502343523992)"><svg viewBox="0 0 280 280" data-background-color="#4b91f1" preserveAspectRatio="xMidYMid meet" height="1000" width="1000" xmlns="http://www.w3.org/2000/svg" xmlns:xlink="http://www.w3.org/1999/xlink"><g id="tight-bounds" transform="matrix(1,0,0,1,0.13999999999998636,0.13990625904031617)"><svg viewBox="0 0 279.72 279.72" height="279.72" width="279.72"><g><svg viewBox="0 0 279.72 279.72" height="279.72" width="279.72"><g><svg viewBox="0 0 279.72 279.72" height="279.72" width="279.72"><g id="textblocktransform"><svg viewBox="0 0 279.72 279.72" height="279.72" width="279.72" id="textblock"><g><svg viewBox="0 0 279.72 279.72" height="279.72" width="279.72"><g transform="matrix(1,0,0,1,73.92936372216631,86.58494072614124)"><svg viewBox="0 0 131.8612725556674 106.55011854771753" height="106.55011854771753" width="131.8612725556674"><g><svg xmlns="http://www.w3.org/2000/svg" xmlns:xlink="http://www.w3.org/1999/xlink" version="1.1" x="0" y="0" viewBox="0 49.1 511.97510805067213 413.70000000000005" style="enable-background:new 0 0 512 512;" xml:space="preserve" height="106.55011854771753" width="131.8612725556674" class="icon-kg-0" data-fill-palette-color="accent" id="kg-0"><g fill="#0718c4" data-fill-palette-color="accent"><path d="M112 358.7c23.2-9.7 48.1-15.2 73.7-16.5v-64.1h-85.1C101.6 306.9 105.5 334.3 112 358.7z" fill="#ffffff" data-fill-palette-color="accent"></path><path d="M100.7 254.8h85.1v-64.6c-25.6-1.3-50.5-6.8-73.6-16.4C105.6 198.3 101.6 225.9 100.7 254.8z" fill="#ffffff" data-fill-palette-color="accent"></path><path d="M119.2 151.4c20.9 9 43.4 14.2 66.6 15.5V70.1C158.7 77.1 134.8 107.8 119.2 151.4z" fill="#ffffff" data-fill-palette-color="accent"></path><path d="M90.6 163.3c-14.4-8-27.9-17.7-40.3-28.8C21.2 166.8 2.7 208.7 0 254.8h77.4C78.3 221.7 82.9 190.7 90.6 163.3z" fill="#ffffff" data-fill-palette-color="accent"></path><path d="M132.2 79.7c-24.3 8.5-46.4 21.6-65.4 38.3 9.7 8.6 20.1 16.1 31.1 22.5C107 116.2 118.6 95.6 132.2 79.7z" fill="#ffffff" data-fill-palette-color="accent"></path><path d="M185.8 462.8v-97.3c-23.3 1.3-45.8 6.6-66.7 15.6C134.6 425 158.6 455.8 185.8 462.8z" fill="#ffffff" data-fill-palette-color="accent"></path><path d="M233.1 101.5l0.9-7.6 7.4-2.2c0.2-0.1 0.4-0.1 0.6-0.2-8.8-9.5-19.9-18-32.9-21.4v97c9.5-0.5 18.8-1.8 28-3.7C230.3 128.1 233 102.1 233.1 101.5z" fill="#ffffff" data-fill-palette-color="accent"></path><path d="M66.5 414.7c19 16.8 41.2 30 65.6 38.5-13.6-15.9-25.3-36.7-34.4-61.2C86.7 398.5 76.3 406 66.5 414.7z" fill="#ffffff" data-fill-palette-color="accent"></path><path d="M77.4 278.1H0c2.7 46 21.1 87.8 50 120.1 12.5-11.2 26-21 40.5-29C82.9 341.9 78.3 311.1 77.4 278.1z" fill="#ffffff" data-fill-palette-color="accent"></path><path d="M209.1 365.5v97.3c27.3-6.9 51.4-37.6 67-81.6C255 372.2 232.4 366.9 209.1 365.5z" fill="#ffffff" data-fill-palette-color="accent"></path><path d="M317.1 151.9c6.3 29.7 23.3 67 66.7 94.3 43.4-27.3 60.4-64.6 66.7-94.3-24.6-9.7-47-20.4-66.7-32.2C364 131.5 341.7 142.3 317.1 151.9z" fill="#ffffff" data-fill-palette-color="accent"></path><path d="M242.6 186.1c-11 2.3-22.2 3.7-33.5 4.3v64.4h66.7C259.3 231.8 249 208 242.6 186.1z" fill="#ffffff" data-fill-palette-color="accent"></path><path d="M511.8 111.7c-73.1-22.6-112.3-49.6-128.1-62.6-15.8 13-54.9 40-128.1 62.6-1.3 30.5 2.6 144.3 128.1 200.3C509.2 256 513.2 142.2 511.8 111.7zM475.2 146.2c-5.6 37.1-25 88.7-85.6 123.6l-5.8 3.4-5.8-3.4c-60.6-34.9-80-86.5-85.6-123.7l-1.4-9.3 8.8-3.3c29.4-11 55.6-23.5 77.8-37.3l6.1-3.8 6.1 3.8c22.3 13.8 48.5 26.4 77.8 37.4l8.8 3.3L475.2 146.2z" fill="#ffffff" data-fill-palette-color="accent"></path><path d="M294.1 278.1h-85.1v64.1c25.7 1.3 50.6 6.8 73.8 16.5C289.3 334.4 293.3 307.1 294.1 278.1z" fill="#ffffff" data-fill-palette-color="accent"></path><path d="M316.5 298.1c-1.9 25.4-6.2 49.2-12.4 71 14.6 8.1 28.3 18 41 29.4 15.9-17.8 28.6-38.6 37.3-61.7l-3.2-1.4C354.3 324.9 333.7 312.1 316.5 298.1z" fill="#ffffff" data-fill-palette-color="accent"></path><path d="M261.7 453.8c24.8-8.5 47.4-21.8 66.8-38.9-9.9-8.8-20.5-16.5-31.8-23C287.5 416.7 275.6 437.8 261.7 453.8z" fill="#ffffff" data-fill-palette-color="accent"></path></g></svg></g></svg></g><g><path d="M4.502 95.27v0c2.004-5.878 6.553-7.608 13.649-5.189v0c3.248 1.107 5.531 2.819 6.848 5.136 1.311 2.314 1.535 4.737 0.672 7.27v0c-0.919 2.695-2.364 4.527-4.337 5.496v0c-2.343 1.119-5.279 1.078-8.808-0.125-3.528-1.203-5.962-2.973-7.3-5.311-1.339-2.338-1.58-4.764-0.724-7.277zM20.398 106.029v0c1.603-0.674 2.762-2.059 3.476-4.155v0c0.672-1.972 0.445-3.863-0.682-5.671-1.127-1.808-3.159-3.213-6.095-4.214-2.929-0.999-5.36-1.083-7.293-0.252v0c-1.638 0.691-2.81 2.072-3.515 4.142v0c-0.666 1.953-0.431 3.842 0.705 5.668 1.136 1.826 3.175 3.24 6.117 4.244 2.942 1.003 5.371 1.083 7.287 0.238z" fill="#ffffff" data-fill-palette-color="primary"></path><path d="M32.042 87.215l-1.016 1.889-19.478-10.478 2.17-4.033c1.228-2.283 2.477-3.74 3.745-4.37v0c1.474-0.737 3.223-0.562 5.246 0.526v0c3.38 1.818 4.741 4.222 4.085 7.212v0c-0.207 0.966-0.596 1.979-1.166 3.039v0l-1.153 2.144zM15.171 75.55l-1.08 2.008 8.848 4.76 1.08-2.008c0.899-1.672 1.204-3.116 0.915-4.334-0.29-1.218-1.264-2.273-2.924-3.166-1.659-0.893-2.989-1.077-3.99-0.553-1 0.524-1.95 1.622-2.849 3.293z" fill="#ffffff" data-fill-palette-color="primary"></path><path d="M44.339 68.297l-1.2 1.588-16.129-12.194-3.77 4.987-1.421-1.268 8.635-11.422 1.415 1.277-3.658 4.838z" fill="#ffffff" data-fill-palette-color="primary"></path><path d="M37.409 42.81l13.843 4.701-4.128-13.886 1.612-1.524 4.462 15.997 5.103 5.397-1.446 1.368-5.125-5.42-15.992-5.053z" fill="#ffffff" data-fill-palette-color="primary"></path><path d="M78.98 38.151l-10.741-5.102 0.742 11.695-1.843 1.215-0.608-13.722-11.119-5.038 2.059-1.358 9.513 4.552-0.651-10.395 1.843-1.215 0.503 12.42 12.36 5.591z" fill="#ffffff" data-fill-palette-color="primary"></path><path d="M86.593 9.8l0.659 1.786-8.347 3.873 3.495 7.533 7.739-3.59 0.658 1.787-7.598 3.525 3.417 7.365 9.058-4.203 0.658 1.787-10.864 5.04-9.309-20.062z" fill="#ffffff" data-fill-palette-color="primary"></path><path d="M116.896 23.766l-2.223 0.632-17.392-15.092 5.425 18.491-1.915 0.544-6.044-21.275 2.213-0.629 17.362 15.101-5.385-18.503 1.915-0.544z" fill="#ffffff" data-fill-palette-color="primary"></path><path d="M129.221 0.257v0c6.186-0.548 9.61 2.911 10.271 10.378v0c0.303 3.418-0.338 6.199-1.922 8.342-1.585 2.136-3.71 3.322-6.375 3.557v0c-2.836 0.251-5.097-0.329-6.782-1.739v0c-1.972-1.689-3.123-4.391-3.452-8.104-0.329-3.713 0.304-6.655 1.9-8.826 1.596-2.171 3.716-3.374 6.36-3.608zM125.82 19.148v0c1.266 1.193 3.001 1.691 5.207 1.496v0c2.076-0.184 3.712-1.157 4.909-2.921 1.197-1.763 1.659-4.189 1.385-7.279-0.273-3.083-1.181-5.339-2.722-6.77v0c-1.295-1.218-3.032-1.73-5.211-1.537v0c-2.055 0.182-3.687 1.162-4.897 2.94-1.21 1.778-1.677 4.215-1.403 7.312 0.274 3.096 1.185 5.349 2.732 6.759z" fill="#ffffff" data-fill-palette-color="primary"></path><path d="M161.879 23.59l-2.3-0.217-10.743-20.367-1.644 19.2-1.982-0.186 2.075-22.02 2.29 0.216 10.712 20.364 1.684-19.196 1.983 0.186z" fill="#ffffff" data-fill-palette-color="primary"></path><path d="M199.693 14.423l-1.279 1.035c-0.311-0.708-1.089-1.444-2.337-2.208v0c-0.449-0.29-1.068-0.586-1.858-0.888-0.784-0.3-1.687-0.432-2.709-0.396-1.019 0.045-2.012 0.331-2.98 0.859v0c-2.102 1.184-3.756 3.349-4.96 6.496-1.204 3.147-1.328 5.626-0.371 7.435v0c0.644 1.262 1.778 2.205 3.403 2.827 1.625 0.622 3.263 1.009 4.913 1.162v0l2.841-6.965 1.619 0.619-3.049 7.968c-1.078 0.221-2.794 0.017-5.146-0.61v0c-0.659-0.164-1.338-0.38-2.038-0.648-0.694-0.265-1.47-0.691-2.328-1.277-0.858-0.586-1.56-1.378-2.107-2.375v0c-1.236-2.255-1.161-5.194 0.226-8.816 1.386-3.623 3.324-6.088 5.813-7.396 2.485-1.317 5.095-1.452 7.831-0.405v0l0.922 0.419c1.195 0.59 2.06 1.179 2.594 1.766 0.527 0.585 0.861 1.051 1 1.398z" fill="#ffffff" data-fill-palette-color="primary"></path><path d="M216.146 28.575v0c-1.531 2.618-3.456 3.847-5.775 3.686v0l-0.963 11.111-1.995-1.166 0.879-10.396c-0.719-0.269-1.47-0.633-2.254-1.09v0l-2.102-1.229-4.654 7.962-1.853-1.083 11.163-19.094 3.954 2.311c2.22 1.298 3.637 2.588 4.249 3.871v0c0.706 1.464 0.489 3.17-0.649 5.117zM211.537 21.006l-1.968-1.151-4.753 8.131 1.968 1.15c1.615 0.944 3.023 1.329 4.224 1.155 1.201-0.174 2.275-1.072 3.223-2.692v0c1.211-2.072 0.968-3.823-0.728-5.254v0c-0.544-0.446-1.199-0.892-1.966-1.339z" fill="#ffffff" data-fill-palette-color="primary"></path><path d="M233.691 34.72v0c4.762 3.986 4.737 8.853-0.074 14.601v0c-2.203 2.631-4.622 4.145-7.258 4.54-2.631 0.39-4.972-0.274-7.023-1.992v0c-2.183-1.828-3.372-3.836-3.567-6.025v0c-0.2-2.589 0.896-5.313 3.289-8.171 2.393-2.858 4.921-4.491 7.584-4.898 2.664-0.407 5.013 0.241 7.049 1.945zM217.929 45.674v0c0.052 1.738 0.926 3.318 2.625 4.74v0c1.598 1.338 3.443 1.806 5.536 1.406 2.093-0.4 4.135-1.79 6.126-4.169 1.986-2.373 2.94-4.611 2.861-6.712v0c-0.055-1.777-0.921-3.367-2.598-4.772v0c-1.582-1.324-3.429-1.785-5.541-1.383-2.112 0.402-4.166 1.795-6.162 4.179-1.995 2.384-2.944 4.621-2.847 6.711z" fill="#ffffff" data-fill-palette-color="primary"></path><path d="M255.762 58.261l1.273 1.531-9.717 8.08c-2.528 2.102-4.924 3.093-7.188 2.972v0c-1.991-0.124-3.749-1.104-5.275-2.939-1.53-1.84-2.264-3.61-2.2-5.308v0c0.107-2.28 1.594-4.612 4.46-6.996v0l9.717-8.079 1.371 1.649-9.692 8.06c-2.348 1.952-3.604 3.82-3.768 5.602v0c-0.123 1.337 0.387 2.692 1.531 4.067v0c1.71 2.057 3.928 2.53 6.652 1.418v0c0.964-0.39 2.011-1.055 3.143-1.997v0z" fill="#ffffff" data-fill-palette-color="primary"></path><path d="M244.089 80.835l-1.085-1.851 19.083-11.182 2.315 3.952c1.311 2.237 1.905 4.061 1.784 5.471v0c-0.137 1.643-1.197 3.045-3.179 4.206v0c-3.311 1.94-6.072 1.853-8.285-0.263v0c-0.717-0.68-1.38-1.539-1.988-2.577v0l-1.231-2.1zM262.829 72.496l-1.153-1.967-8.669 5.08 1.153 1.967c0.96 1.638 2.035 2.65 3.226 3.036 1.191 0.386 2.599 0.103 4.225-0.85 1.626-0.953 2.475-1.992 2.548-3.119 0.073-1.127-0.37-2.509-1.33-4.147z" fill="#ffffff" data-fill-palette-color="primary"></path><path d="M275.726 98.004v0l-1.816 0.314c-0.26-1.641-0.598-2.994-1.015-4.057v0c-1.492-3.803-3.394-5.251-5.705-4.344v0c-0.883 0.347-1.45 0.89-1.699 1.631-0.253 0.749-0.362 1.609-0.329 2.578 0.027 0.972 0.111 1.996 0.252 3.071 0.144 1.081 0.172 2.123 0.085 3.125v0c-0.201 2.369-1.309 3.949-3.326 4.74-2.023 0.794-3.85 0.639-5.48-0.465v0c-1.41-0.939-2.531-2.468-3.362-4.587v0c-1.033-2.631-1.303-5.081-0.812-7.35v0l1.796 0.171c-0.163 0.677-0.215 1.569-0.158 2.677 0.064 1.105 0.277 2.119 0.639 3.04v0c0.708 1.805 1.561 3.111 2.557 3.917v0c1.216 0.971 2.499 1.191 3.85 0.662v0c1.005-0.394 1.677-0.979 2.015-1.755 0.338-0.776 0.512-1.66 0.521-2.654 0.005-0.985-0.06-2.016-0.194-3.093-0.141-1.075-0.192-2.108-0.152-3.099v0c0.088-2.317 0.983-3.81 2.686-4.478 1.709-0.671 3.294-0.613 4.756 0.173 1.458 0.78 2.611 2.248 3.457 4.406v0c0.656 1.671 1.134 3.463 1.434 5.377z" fill="#ffffff" data-fill-palette-color="primary"></path><path d="M24.401 186.057l-0.962-0.227c0.221-0.411 0.286-1.052 0.196-1.923v0c-0.032-0.321-0.12-0.721-0.265-1.202-0.147-0.487-0.416-0.963-0.807-1.427-0.393-0.471-0.893-0.841-1.498-1.111v0c-1.333-0.561-2.967-0.55-4.903 0.034-1.936 0.583-3.159 1.433-3.671 2.549v0c-0.357 0.768-0.385 1.653-0.084 2.655 0.302 1.001 0.715 1.921 1.242 2.761v0l4.353-1.215 0.3 0.998-4.909 1.479c-0.495-0.426-1.025-1.315-1.59-2.667v0c-0.163-0.375-0.309-0.776-0.438-1.204-0.129-0.428-0.212-0.953-0.248-1.574-0.036-0.621 0.081-1.245 0.352-1.873v0c0.616-1.414 2.036-2.456 4.261-3.126 2.232-0.673 4.115-0.658 5.648 0.044 1.54 0.7 2.562 1.889 3.069 3.568v0l0.136 0.594c0.158 0.786 0.195 1.41 0.112 1.874-0.081 0.47-0.179 0.801-0.294 0.993z" fill="#ffffff" data-fill-palette-color="primary"></path><path d="M16.381 192.477v0c0.473-0.44 1.085-0.814 1.836-1.124v0c1.437-0.591 2.732-0.652 3.885-0.181 1.156 0.461 1.984 1.299 2.484 2.514v0c0.785 1.908 0.527 3.479-0.772 4.713v0c-0.468 0.453-1.074 0.832-1.819 1.138v0c-1.437 0.591-2.736 0.653-3.895 0.185-1.153-0.47-1.979-1.313-2.478-2.527v0c-0.785-1.908-0.532-3.481 0.759-4.718zM18.808 192.438c-1.075 0.442-1.793 1.065-2.155 1.867-0.364 0.797-0.365 1.634-0.004 2.512 0.358 0.871 0.973 1.47 1.843 1.796 0.864 0.329 1.833 0.272 2.908-0.17 1.075-0.442 1.796-1.058 2.162-1.848 0.358-0.794 0.356-1.63-0.005-2.508-0.364-0.884-0.977-1.491-1.841-1.819-0.864-0.329-1.833-0.272-2.908 0.17z" fill="#ffffff" data-fill-palette-color="primary"></path><path d="M29.527 204.079v0c0.342 0.667 0.47 1.397 0.383 2.192v0l4.635-2.379 0.643 1.049-12.26 6.296-0.043-0.083c-0.326-0.273-0.734-0.798-1.225-1.574-0.497-0.773-0.828-1.318-0.991-1.636v0c-0.484-0.942-0.649-1.843-0.495-2.703v0c0.206-1.196 1.058-2.178 2.556-2.948 1.493-0.767 2.846-0.955 4.059-0.565 1.219 0.387 2.132 1.171 2.738 2.351zM23.064 209.786l6.121-3.143c-0.081-0.67-0.26-1.274-0.536-1.812v0c-0.531-1.034-1.261-1.687-2.189-1.96-0.932-0.264-1.979-0.097-3.141 0.5-1.156 0.594-1.805 1.333-1.947 2.217v0c-0.125 0.644-0.007 1.318 0.354 2.021 0.361 0.704 0.807 1.429 1.339 2.177z" fill="#ffffff" data-fill-palette-color="primary"></path><path d="M33.948 209.292l-0.487-0.767 0.939-0.539 0.748-0.439c0.261-0.153 0.473-0.282 0.635-0.386v0l0.562 0.855c-0.706 0.415-1.43 0.804-2.173 1.169v0z" fill="#ffffff" data-fill-palette-color="primary"></path><path d="M37.727 217.964l-1.049 0.344c-0.127-0.461-0.409-1.017-0.846-1.669-0.437-0.651-0.888-1.077-1.354-1.278-0.47-0.207-0.876-0.195-1.219 0.035-0.343 0.23-0.52 0.502-0.532 0.817-0.018 0.319 0.024 0.671 0.126 1.059 0.097 0.391 0.218 0.806 0.364 1.246 0.146 0.44 0.239 0.875 0.278 1.304v0c0.117 0.99-0.195 1.733-0.937 2.231-0.748 0.502-1.493 0.633-2.234 0.393-0.735-0.244-1.43-0.854-2.085-1.831v0c-0.33-0.491-0.599-0.998-0.809-1.519-0.204-0.526-0.299-0.971-0.287-1.336v0l1.067-0.206c-0.05 0.382 0.126 0.971 0.529 1.77v0c0.119 0.251 0.259 0.497 0.42 0.737v0c0.368 0.548 0.789 0.929 1.262 1.14 0.472 0.222 0.939 0.178 1.401-0.133v0c0.314-0.211 0.492-0.483 0.533-0.817 0.035-0.33 0.008-0.692-0.083-1.087-0.091-0.395-0.212-0.81-0.364-1.246-0.162-0.438-0.271-0.866-0.328-1.284-0.062-0.414-0.039-0.811 0.071-1.19 0.108-0.37 0.37-0.695 0.787-0.975v0c0.685-0.46 1.407-0.563 2.165-0.31 0.76 0.244 1.437 0.808 2.031 1.694v0c0.146 0.217 0.283 0.452 0.411 0.705 0.13 0.244 0.247 0.468 0.351 0.672v0z" fill="#ffffff" data-fill-palette-color="primary"></path><path d="M51.611 229.077v0l-0.961 0.548c-0.478-0.872-0.945-1.565-1.401-2.081v0c-1.623-1.833-2.993-2.255-4.11-1.266v0c-0.427 0.378-0.636 0.802-0.626 1.27 0.015 0.473 0.13 0.982 0.346 1.527 0.221 0.54 0.479 1.096 0.775 1.669 0.301 0.579 0.531 1.16 0.691 1.745v0c0.379 1.373 0.08 2.492-0.899 3.358-0.973 0.862-2.033 1.148-3.18 0.859v0c-0.989-0.236-1.935-0.863-2.838-1.883v0c-1.121-1.267-1.781-2.593-1.979-3.979v0l1.054-0.272c0.048 0.417 0.204 0.931 0.469 1.542 0.26 0.615 0.586 1.144 0.978 1.586v0c0.77 0.87 1.521 1.427 2.251 1.672v0c0.888 0.298 1.657 0.159 2.305-0.415v0c0.484-0.428 0.741-0.895 0.772-1.4 0.031-0.515-0.053-1.051-0.252-1.608-0.2-0.558-0.448-1.123-0.745-1.697-0.301-0.579-0.541-1.151-0.721-1.718v0c-0.431-1.327-0.234-2.355 0.589-3.084 0.819-0.725 1.721-1.018 2.707-0.881 0.99 0.143 1.945 0.735 2.866 1.775v0c0.711 0.803 1.348 1.714 1.909 2.733z" fill="#ffffff" data-fill-palette-color="primary"></path><path d="M50.373 244.058c-0.593 0.013-1.145-0.082-1.655-0.285-0.52-0.203-0.919-0.423-1.197-0.66-0.282-0.232-0.553-0.472-0.811-0.719-0.253-0.243-0.51-0.531-0.77-0.866v0l-3.274 3.42-0.951-0.782 9.488-9.91c0.261 0.126 0.659 0.326 1.195 0.601 0.536 0.266 1.04 0.624 1.512 1.076 0.467 0.447 0.836 0.872 1.107 1.275 0.267 0.408 0.442 0.861 0.526 1.36v0c0.177 1.188-0.32 2.393-1.49 3.615-1.17 1.222-2.397 1.847-3.68 1.875zM51.562 235.656l-4.951 5.171c0.211 0.326 0.474 0.639 0.786 0.939v0c0.894 0.856 1.837 1.249 2.828 1.179 0.986-0.065 1.938-0.577 2.855-1.536 0.918-0.959 1.328-1.88 1.232-2.763v0c-0.077-0.616-0.386-1.183-0.927-1.702-0.541-0.518-1.149-0.948-1.823-1.288z" fill="#ffffff" data-fill-palette-color="primary"></path><path d="M56.612 245.001l-0.189 0.233c-1.404 1.731-1.28 3.265 0.371 4.603v0c0.7 0.568 1.414 0.992 2.142 1.273v0c0.189 0.073 0.325 0.118 0.41 0.133v0l-0.421 0.961c-0.506-0.074-1.248-0.432-2.224-1.074v0c-0.269-0.192-0.546-0.403-0.829-0.632v0c-0.828-0.671-1.347-1.434-1.558-2.287v0c-0.304-1.176 0.073-2.416 1.13-3.719 1.057-1.303 2.213-2.03 3.469-2.18 1.246-0.149 2.355 0.17 3.327 0.958 0.972 0.788 1.448 1.697 1.428 2.726v0c-0.029 0.8-0.379 1.614-1.051 2.442v0c-0.156 0.192-0.333 0.389-0.532 0.591v0l-5.256-4.263c-0.071 0.066-0.144 0.145-0.217 0.235zM61.563 244.236v0c-0.609-0.494-1.279-0.732-2.011-0.715-0.732 0.018-1.414 0.248-2.047 0.69v0l4.286 3.477c0.83-1.133 0.922-2.108 0.274-2.925v0c-0.143-0.195-0.31-0.371-0.502-0.527z" fill="#ffffff" data-fill-palette-color="primary"></path><path d="M64.987 251.426l-0.169 0.246c-1.258 1.839-1.011 3.358 0.742 4.559v0c0.743 0.509 1.49 0.874 2.239 1.095v0c0.194 0.058 0.334 0.091 0.419 0.099v0l-0.341 0.992c-0.511-0.033-1.279-0.329-2.304-0.89v0c-0.284-0.169-0.576-0.357-0.877-0.563v0c-0.88-0.602-1.459-1.32-1.739-2.152v0c-0.398-1.147-0.123-2.414 0.824-3.799 0.948-1.385 2.041-2.203 3.281-2.455 1.23-0.25 2.361-0.022 3.393 0.685 1.033 0.707 1.581 1.574 1.645 2.601v0c0.036 0.8-0.247 1.639-0.849 2.519v0c-0.14 0.204-0.301 0.415-0.482 0.632v0l-5.585-3.822c-0.066 0.072-0.132 0.156-0.197 0.253zM69.859 250.26v0c-0.647-0.443-1.334-0.626-2.062-0.548-0.728 0.077-1.389 0.362-1.984 0.854v0l4.554 3.117c0.736-1.197 0.748-2.176 0.036-2.938v0c-0.158-0.183-0.339-0.345-0.544-0.485z" fill="#ffffff" data-fill-palette-color="primary"></path><path d="M79.551 254.749v0c0.651 0.372 1.157 0.914 1.518 1.628v0l2.585-4.523 1.111 0.529-6.838 11.965-0.08-0.046c-0.422-0.051-1.051-0.268-1.886-0.65-0.839-0.376-1.413-0.653-1.724-0.83v0c-0.92-0.525-1.549-1.19-1.89-1.995v0c-0.48-1.114-0.302-2.403 0.534-3.866 0.833-1.457 1.864-2.353 3.093-2.688 1.233-0.341 2.425-0.182 3.577 0.476zM77.25 263.059l3.414-5.974c-0.433-0.517-0.913-0.926-1.438-1.226v0c-1.009-0.577-1.977-0.726-2.904-0.448-0.925 0.287-1.711 0.998-2.36 2.133-0.645 1.129-0.785 2.102-0.421 2.919v0c0.246 0.608 0.713 1.109 1.4 1.501 0.687 0.392 1.456 0.757 2.309 1.095z" fill="#ffffff" data-fill-palette-color="primary"></path><path d="M91.317 260.598l1.165 0.397-3.763 8.803-1.128-0.483zM92.836 258.487c-0.234-0.1-0.379-0.252-0.434-0.454-0.055-0.203-0.034-0.419 0.063-0.647 0.1-0.234 0.247-0.395 0.442-0.484 0.195-0.089 0.409-0.083 0.644 0.017 0.228 0.097 0.383 0.25 0.466 0.458 0.083 0.208 0.071 0.438-0.037 0.691-0.111 0.259-0.272 0.418-0.484 0.477-0.206 0.062-0.426 0.042-0.66-0.058z" fill="#ffffff" data-fill-palette-color="primary"></path><path d="M96.819 262.617l-0.381 1.069c1.12-0.339 2.088-0.381 2.903-0.128v0c0.726 0.258 1.252 0.544 1.579 0.857 0.331 0.322 0.565 0.69 0.702 1.104 0.142 0.423 0.106 0.932-0.106 1.528v0l-2.337 6.57-1.166-0.415 2.23-6.269c0.157-0.441 0.184-0.814 0.081-1.121v0c-0.226-0.577-0.73-1.004-1.514-1.283v0c-0.765-0.228-1.644-0.263-2.634-0.105v0l-2.566 7.212-1.166-0.415 3.177-8.932z" fill="#ffffff" data-fill-palette-color="primary"></path><path d="M120.093 278.467l-1.356-0.267-5.184-12.808-2.144 11.364-1.174-0.231 2.565-13.016 1.356 0.267 5.173 12.806 2.155-11.362 1.174 0.231z" fill="#ffffff" data-fill-palette-color="primary"></path><path d="M125.202 274.327l-0.029 0.298c-0.221 2.217 0.726 3.431 2.84 3.642v0c0.896 0.089 1.726 0.051 2.489-0.115v0c0.198-0.042 0.336-0.081 0.416-0.114v0l0.177 1.034c-0.464 0.216-1.28 0.325-2.448 0.326v0c-0.331-0.012-0.677-0.036-1.04-0.072v0c-1.061-0.106-1.914-0.457-2.56-1.054v0c-0.9-0.815-1.267-2.058-1.1-3.728 0.166-1.67 0.733-2.913 1.699-3.728 0.958-0.81 2.06-1.153 3.306-1.029 1.245 0.124 2.143 0.621 2.691 1.492v0c0.416 0.684 0.571 1.557 0.465 2.617v0c-0.025 0.246-0.065 0.508-0.12 0.787v0l-6.733-0.672c-0.023 0.094-0.041 0.2-0.053 0.316zM128.917 270.966v0c-0.78-0.078-1.471 0.092-2.072 0.508-0.601 0.417-1.045 0.984-1.331 1.703v0l5.492 0.547c0.071-1.403-0.389-2.268-1.38-2.594v0c-0.227-0.085-0.463-0.139-0.709-0.164z" fill="#ffffff" data-fill-palette-color="primary"></path><path d="M143.283 279.672l-2.269-7.614-2.507 7.633-1.135 0.005-3.174-9.468 1.393-0.098 2.435 8.006 2.434-7.933 1.196-0.097 2.147 8.027 2.754-7.954 1.464-0.099-3.603 9.588z" fill="#ffffff" data-fill-palette-color="primary"></path><path d="M167.847 276.906l-1.832-3.241-5.752 1.003-0.596 3.664-1.21 0.211 2.447-13.893 1.138-0.198 7.167 12.216zM161.65 265.986l-1.235 7.692 5.102-0.89z" fill="#ffffff" data-fill-palette-color="primary"></path><path d="M172.688 271.961v0c-1.026-0.204-1.708-0.926-2.049-2.166v0c-0.28-1.021-0.139-1.898 0.424-2.63 0.556-0.73 1.381-1.245 2.475-1.545v0c0.298-0.082 0.668-0.151 1.109-0.207v0l3.408-1.031 0.161 0.705-2 0.548c0.806 0.314 1.348 0.975 1.624 1.983 0.275 1.002 0.151 1.866-0.369 2.593-0.521 0.727-1.312 1.237-2.373 1.528v0c-0.677 0.185-1.258 0.277-1.743 0.275v0c-0.17 0.289-0.216 0.58-0.136 0.871v0c0.113 0.411 0.423 0.647 0.932 0.707 0.5 0.055 1.074 0.041 1.721-0.044v0c1.43-0.192 2.495-0.21 3.194-0.052v0c1.01 0.251 1.653 0.88 1.93 1.889 0.278 1.015 0.003 1.896-0.826 2.644v0c-0.63 0.565-1.465 0.99-2.507 1.275-1.035 0.284-1.852 0.422-2.453 0.416v0c-1.595-0.019-2.551-0.606-2.868-1.76-0.318-1.161 0.066-2.321 1.153-3.482v0c-0.614-0.238-0.991-0.609-1.129-1.113-0.136-0.497-0.029-0.965 0.322-1.404zM179.797 275.692v0c-0.216-0.789-0.89-1.193-2.022-1.21v0c-0.315-0.006-0.868 0.035-1.657 0.122-0.784 0.079-1.414 0.095-1.891 0.048v0c-0.723 1.032-0.983 1.917-0.781 2.653v0c0.085 0.312 0.204 0.561 0.355 0.747 0.156 0.178 0.378 0.313 0.667 0.406v0c0.637 0.218 1.503 0.176 2.598-0.124v0c1.439-0.394 2.331-0.967 2.674-1.717v0c0.129-0.285 0.148-0.593 0.057-0.925zM176.583 267.909v0c-0.354-1.293-1.298-1.73-2.83-1.31v0c-0.73 0.2-1.287 0.535-1.672 1.004-0.387 0.463-0.485 1.039-0.296 1.728 0.189 0.69 0.505 1.167 0.948 1.43 0.436 0.265 1.059 0.287 1.869 0.066 0.816-0.224 1.4-0.59 1.752-1.101 0.344-0.515 0.42-1.121 0.229-1.817z" fill="#ffffff" data-fill-palette-color="primary"></path><path d="M182.38 268.006l0.102 0.281c0.758 2.095 2.136 2.782 4.134 2.059v0c0.847-0.306 1.579-0.699 2.196-1.177v0c0.16-0.124 0.269-0.218 0.326-0.283v0l0.605 0.856c-0.325 0.395-1.014 0.846-2.067 1.351v0c-0.303 0.132-0.627 0.259-0.969 0.383v0c-1.002 0.362-1.924 0.414-2.764 0.155v0c-1.164-0.347-2.031-1.31-2.601-2.888-0.571-1.578-0.596-2.944-0.077-4.097 0.515-1.144 1.361-1.929 2.538-2.354 1.177-0.426 2.201-0.364 3.072 0.184v0c0.67 0.438 1.186 1.158 1.549 2.16v0c0.084 0.233 0.161 0.487 0.231 0.761v0l-6.364 2.301c0.02 0.095 0.05 0.198 0.089 0.308zM184.28 263.37v0c-0.737 0.267-1.287 0.718-1.649 1.353-0.363 0.636-0.518 1.339-0.466 2.11v0l5.19-1.876c-0.542-1.296-1.33-1.878-2.364-1.746v0c-0.241 0.021-0.478 0.074-0.711 0.159z" fill="#ffffff" data-fill-palette-color="primary"></path><path d="M204.076 263.5l-1.058 0.56-5.672-10.724-3.31 1.751-0.449-1.047 7.587-4.013 0.449 1.047-3.219 1.702z" fill="#ffffff" data-fill-palette-color="primary"></path><path d="M206.834 256.57l0.158 0.254c1.174 1.894 2.664 2.281 4.47 1.162v0c0.766-0.475 1.401-1.01 1.906-1.606v0c0.131-0.154 0.218-0.269 0.26-0.343v0l0.769 0.712c-0.236 0.454-0.818 1.037-1.744 1.749v0c-0.27 0.191-0.559 0.383-0.869 0.575v0c-0.906 0.562-1.797 0.802-2.672 0.721v0c-1.21-0.099-2.258-0.862-3.142-2.288-0.884-1.426-1.191-2.757-0.921-3.993 0.268-1.226 0.934-2.168 1.998-2.828 1.064-0.659 2.079-0.811 3.044-0.454v0c0.746 0.29 1.4 0.888 1.961 1.794v0c0.13 0.21 0.258 0.443 0.384 0.697v0l-5.753 3.565c0.039 0.089 0.089 0.183 0.151 0.283zM207.737 251.641v0c-0.666 0.413-1.111 0.968-1.335 1.665-0.224 0.697-0.23 1.417-0.02 2.161v0l4.691-2.908c-0.797-1.156-1.689-1.563-2.674-1.219v0c-0.231 0.071-0.452 0.171-0.662 0.301z" fill="#ffffff" data-fill-palette-color="primary"></path><path d="M218.954 246.413l-1.263-1.543c-0.509 0.178-0.983 0.428-1.42 0.75v0c-0.886 0.652-1.388 1.456-1.504 2.412-0.118 0.966 0.206 1.97 0.972 3.011v0c1.332 1.812 2.838 2.1 4.516 0.866v0c0.676-0.497 1.285-1.12 1.828-1.868v0c0.116-0.145 0.182-0.24 0.198-0.287v0l0.852 0.654c-0.2 0.471-0.733 1.098-1.6 1.881v0c-0.254 0.212-0.527 0.426-0.821 0.642v0c-0.87 0.64-1.741 0.952-2.615 0.937v0c-1.213-0.013-2.319-0.698-3.317-2.056-0.994-1.352-1.395-2.658-1.203-3.917 0.194-1.269 0.864-2.325 2.011-3.169v0c0.366-0.269 0.793-0.506 1.282-0.712 0.479-0.207 0.908-0.292 1.286-0.254v0l1.466 1.995z" fill="#ffffff" data-fill-palette-color="primary"></path><path d="M217.732 237.042l3.803 4.403c0.283-1.198 0.762-2.112 1.437-2.74v0c0.593-0.512 1.109-0.835 1.548-0.969 0.438-0.124 0.871-0.143 1.299-0.058 0.432 0.09 0.855 0.375 1.269 0.853v0l4.558 5.278-0.937 0.809-4.349-5.036c-0.306-0.354-0.617-0.562-0.935-0.624v0c-0.613-0.089-1.234 0.139-1.863 0.683v0c-0.598 0.571-1.107 1.365-1.528 2.382v0l4.99 5.778-0.93 0.802-9.23-10.688z" fill="#ffffff" data-fill-palette-color="primary"></path><path d="M228.15 233.769l0.809 0.796c0.166-1.159 0.536-2.054 1.109-2.686v0c0.54-0.549 1.021-0.905 1.443-1.07 0.431-0.164 0.864-0.221 1.297-0.17 0.443 0.05 0.89 0.297 1.341 0.74v0l4.97 4.892-0.868 0.882-4.742-4.667c-0.333-0.328-0.661-0.51-0.982-0.547v0c-0.618-0.039-1.219 0.238-1.803 0.832v0c-0.53 0.598-0.932 1.379-1.206 2.344v0l5.455 5.369-0.868 0.882-6.757-6.65z" fill="#ffffff" data-fill-palette-color="primary"></path><path d="M239.791 231.767v0c-0.611-0.21-1.23-0.573-1.857-1.09v0c-1.199-0.989-1.863-2.102-1.992-3.34-0.139-1.237 0.21-2.363 1.046-3.376v0c1.313-1.592 2.819-2.106 4.52-1.542v0c0.62 0.199 1.24 0.555 1.861 1.067v0c1.199 0.989 1.866 2.104 2 3.347 0.129 1.238-0.225 2.364-1.06 3.378v0c-1.313 1.592-2.819 2.11-4.518 1.556zM238.612 229.645c0.897 0.739 1.784 1.079 2.663 1.019 0.874-0.055 1.613-0.448 2.217-1.181 0.599-0.727 0.838-1.551 0.714-2.472-0.117-0.917-0.625-1.745-1.521-2.484-0.897-0.739-1.78-1.084-2.65-1.035-0.869 0.059-1.605 0.455-2.208 1.187-0.608 0.738-0.853 1.565-0.736 2.481 0.117 0.917 0.625 1.745 1.521 2.485z" fill="#ffffff" data-fill-palette-color="primary"></path><path d="M249.772 223.046l-0.724 0.992-11.406-8.328 0.649-1.046z" fill="#ffffff" data-fill-palette-color="primary"></path><path d="M249.704 218.781v0c-0.633-0.133-1.291-0.417-1.976-0.852v0c-1.312-0.833-2.108-1.857-2.389-3.07-0.29-1.211-0.083-2.371 0.622-3.479v0c1.106-1.741 2.538-2.437 4.295-2.087v0c0.64 0.121 1.299 0.398 1.979 0.83v0c1.312 0.833 2.111 1.858 2.397 3.075 0.28 1.213 0.069 2.374-0.636 3.482v0c-1.106 1.741-2.537 2.442-4.292 2.101zM248.273 216.821c0.981 0.623 1.904 0.851 2.768 0.683 0.861-0.162 1.545-0.644 2.054-1.445 0.505-0.795 0.64-1.642 0.405-2.542-0.23-0.895-0.835-1.655-1.816-2.278-0.981-0.623-1.9-0.857-2.757-0.7-0.855 0.166-1.537 0.649-2.046 1.45-0.513 0.807-0.654 1.658-0.424 2.554 0.23 0.895 0.835 1.655 1.816 2.278z" fill="#ffffff" data-fill-palette-color="primary"></path><path d="M255.199 207.201v0c-0.846 0.614-1.84 0.625-2.982 0.032v0c-0.94-0.488-1.487-1.187-1.642-2.097-0.158-0.904 0.024-1.859 0.548-2.866v0c0.143-0.275 0.343-0.593 0.601-0.955v0l1.558-3.201 0.627 0.36-0.956 1.84c0.778-0.379 1.631-0.327 2.558 0.155 0.921 0.479 1.472 1.156 1.652 2.033 0.18 0.876 0.017 1.803-0.49 2.779v0c-0.323 0.622-0.651 1.111-0.983 1.466v0c0.097 0.321 0.279 0.552 0.548 0.692v0c0.378 0.197 0.762 0.129 1.152-0.204 0.38-0.329 0.759-0.76 1.136-1.293v0c0.83-1.181 1.541-1.974 2.132-2.379v0c0.87-0.571 1.769-0.615 2.697-0.134 0.934 0.485 1.393 1.286 1.379 2.402v0c-0.013 0.846-0.269 1.748-0.767 2.706-0.495 0.952-0.948 1.646-1.361 2.083v0c-1.098 1.158-2.177 1.461-3.239 0.909-1.068-0.555-1.659-1.625-1.773-3.211v0c-0.592 0.289-1.12 0.313-1.583 0.072-0.458-0.238-0.728-0.634-0.812-1.189zM262.766 204.518v0c-0.726-0.377-1.48-0.157-2.262 0.662v0c-0.219 0.227-0.564 0.66-1.036 1.298-0.474 0.629-0.891 1.103-1.249 1.421v0c0.267 1.231 0.739 2.023 1.416 2.375v0c0.287 0.149 0.55 0.232 0.79 0.247 0.237 0.007 0.487-0.065 0.751-0.214v0c0.592-0.32 1.15-0.983 1.674-1.99v0c0.688-1.324 0.874-2.367 0.556-3.129v0c-0.122-0.288-0.335-0.511-0.64-0.67zM254.871 201.59v0c-1.19-0.618-2.151-0.223-2.884 1.187v0c-0.349 0.671-0.482 1.307-0.399 1.908 0.077 0.598 0.433 1.062 1.067 1.392 0.635 0.33 1.199 0.422 1.694 0.276 0.491-0.14 0.93-0.582 1.317-1.327 0.39-0.751 0.517-1.428 0.382-2.034-0.144-0.602-0.537-1.07-1.177-1.402z" fill="#ffffff" data-fill-palette-color="primary"></path><path d="M264.189 196.764l-10.055-0.475 0.444-1.323 9.104 0.697-6.563-6.635 0.506-1.231 10.755 11.225-0.439 1.069-3.587-3.728z" fill="#ffffff" data-fill-palette-color="primary"></path><path d="M1.51 144.381c0-4.693 3.804-8.497 8.497-8.497 4.693 0 8.497 3.804 8.497 8.497 0 4.693-3.804 8.497-8.497 8.497-4.693 0-8.497-3.804-8.497-8.497z" fill="#ffffff" data-fill-palette-color="primary"></path><path d="M261.216 144.381c0-4.693 3.804-8.497 8.497-8.497 4.693 0 8.497 3.804 8.497 8.497 0 4.693-3.804 8.497-8.497 8.497-4.693 0-8.497-3.804-8.497-8.497z" fill="#ffffff" data-fill-palette-color="primary"></path></g></svg></g></svg></g></svg></g></svg></g><defs></defs></svg><rect width="279.72" height="279.72" fill="none" stroke="none" visibility="hidden"></rect></g></svg></g></svg>