<svg xmlns="http://www.w3.org/2000/svg" version="1.1" xmlns:xlink="http://www.w3.org/1999/xlink" xmlns:svgjs="http://svgjs.dev/svgjs" width="1000" height="1000" viewBox="0 0 1000 1000"><rect width="1000" height="1000" fill="#4b91f1"></rect><g transform="matrix(0.7,0,0,0.7,149.57575883020218,451.0840858816497)"><svg viewBox="0 0 396 56" data-background-color="#4b91f1" preserveAspectRatio="xMidYMid meet" height="141" width="1000" xmlns="http://www.w3.org/2000/svg" xmlns:xlink="http://www.w3.org/1999/xlink"><g id="tight-bounds" transform="matrix(1,0,0,1,0.2399992903427801,-0.2462898619289149)"><svg viewBox="0 0 395.52 56.492577015105425" height="56.492577015105425" width="395.52"><g><svg viewBox="0 0 500.9386753368081 71.54964779609003" height="56.492577015105425" width="395.52"><g><rect width="2.7057996847595756" height="62.127045843204066" x="402.6032452480617" y="4.711300976442981" fill="#77d4fc" opacity="1" stroke-width="0" stroke="transparent" fill-opacity="1" class="rect-o-0" data-fill-palette-color="primary" rx="1%" id="o-0" data-palette-color="#77d4fc"></rect></g><g transform="matrix(1,0,0,1,0,9.888554796709986)"><svg viewBox="0 0 395.52 51.772538202670056" height="51.772538202670056" width="395.52"><g id="textblocktransform"><svg viewBox="0 0 395.52 51.772538202670056" height="51.772538202670056" width="395.52" id="textblock"><g><svg viewBox="0 0 395.52 30.00408871745419" height="30.00408871745419" width="395.52"><g transform="matrix(1,0,0,1,0,0)"><svg width="395.52" viewBox="3.25 -35.20000076293945 466.6099853515625 35.400001525878906" height="30.00408871745419" data-palette-color="#77d4fc"><path d="M18-35.2L18-35.2Q32.75-35.2 32.75-17.4L32.75-17.4Q32.75-9.25 28.55-4.53 24.35 0.2 18 0.2L18 0.2Q11.25 0.2 7.55-3.5L7.55-3.5Q3.25-7.9 3.25-16.75 3.25-25.6 7.48-30.4 11.7-35.2 18-35.2ZM10-5.9L10-5.9Q12.75-2.8 18-2.8L18-2.8Q22.95-2.8 26.15-6.73 29.35-10.65 29.35-18 29.35-25.35 26-29.05L26-29.05Q23.2-32.2 18-32.2L18-32.2Q13.1-32.2 9.88-28.25 6.65-24.3 6.65-16.93 6.65-9.55 10-5.9ZM42.4 0L39 0 39-35 46.25-35Q52.4-35 55.15-33.05L55.15-33.05Q58.35-30.8 58.35-25.35L58.35-25.35Q58.35-16.25 51.35-14.25L51.35-14.25Q49.1-13.6 46.25-13.6L46.25-13.6 42.4-13.6 42.4 0ZM46-32.25L42.4-32.25 42.4-16.35 46-16.35Q50.5-16.35 52.72-18.32 54.95-20.3 54.95-24.78 54.95-29.25 52.72-30.75 50.5-32.25 46-32.25L46-32.25ZM76.15 0L73 0 73-32 63.1-32 63.35-35 86-35 85.75-32 76.15-32 76.15 0ZM94.14-35L104.94-14.55 115.29-35 118.79-35 106.54-11.75 106.54 0 103.39 0 103.39-11.8 90.49-35 94.14-35ZM145.64 0L135.89-16.1 126.69 0 123.19 0 134.34-18.65 124.04-35 127.94-35 136.54-20.7 144.74-35 148.24-35 138.09-18.15 149.54 0 145.64 0ZM173.39-35L173.14-32 158.59-32 158.59-18.85 172.09-18.85 171.84-15.85 158.59-15.85 158.59-3 174.39-3 174.14 0 155.19 0 155.19-35 173.39-35ZM205.99 0L202.34 0 182.39-30.5 182.64 0 179.49 0 179.49-35 183.14-35 203.04-4.5 202.84-35 205.99-35 205.99 0ZM227.08-35.2L227.08-35.2Q241.83-35.2 241.83-17.4L241.83-17.4Q241.83-9.25 237.63-4.53 233.43 0.2 227.08 0.2L227.08 0.2Q220.33 0.2 216.63-3.5L216.63-3.5Q212.33-7.9 212.33-16.75 212.33-25.6 216.56-30.4 220.78-35.2 227.08-35.2ZM219.08-5.9L219.08-5.9Q221.83-2.8 227.08-2.8L227.08-2.8Q232.03-2.8 235.23-6.73 238.43-10.65 238.43-18 238.43-25.35 235.08-29.05L235.08-29.05Q232.28-32.2 227.08-32.2L227.08-32.2Q222.18-32.2 218.96-28.25 215.73-24.3 215.73-16.93 215.73-9.55 219.08-5.9ZM274.18 0L270.53 0 250.58-30.5 250.83 0 247.68 0 247.68-35 251.33-35 271.23-4.5 271.03-35 274.18-35 274.18 0ZM320.48-32.35L319.18-30.1Q317.88-31.4 314.48-32.05L314.48-32.05Q313.23-32.3 311.23-32.3 309.23-32.3 307-31.35 304.78-30.4 303.08-28.4L303.08-28.4Q299.43-24 299.43-16 299.43-8 303.08-4.8L303.08-4.8Q305.58-2.55 309.7-2.55 313.83-2.55 317.63-3.6L317.63-3.6 317.88-15.5 320.63-15.5 320.63-2Q318.43-0.6 312.68 0L312.68 0Q311.08 0.2 309.3 0.2 307.53 0.2 305.13-0.38 302.73-0.95 300.68-2.7L300.68-2.7Q296.03-6.65 296.03-15.85 296.03-25.05 300.43-30.08 304.83-35.1 311.78-35.1L311.78-35.1 313.38-35Q316.53-34.7 318.2-33.85 319.88-33 320.48-32.35L320.48-32.35ZM347.07-25.6L347.07-25.6Q347.07-18.4 342.12-15.95L342.12-15.95 349.67 0 346.02 0 338.92-14.9Q337.12-14.6 334.97-14.6L334.97-14.6 331.12-14.6 331.12 0 327.72 0 327.72-35 334.97-35Q341.07-35 343.87-33.1L343.87-33.1Q347.07-30.95 347.07-25.6ZM334.72-32.25L331.12-32.25 331.12-17.35 334.72-17.35Q339.17-17.35 341.42-19.15 343.67-20.95 343.67-25.4L343.67-25.4Q343.67-31.1 338.47-32L338.47-32Q336.82-32.25 334.72-32.25L334.72-32.25ZM368.47-35.2L368.47-35.2Q383.22-35.2 383.22-17.4L383.22-17.4Q383.22-9.25 379.02-4.53 374.82 0.2 368.47 0.2L368.47 0.2Q361.72 0.2 358.02-3.5L358.02-3.5Q353.72-7.9 353.72-16.75 353.72-25.6 357.95-30.4 362.17-35.2 368.47-35.2ZM360.47-5.9L360.47-5.9Q363.22-2.8 368.47-2.8L368.47-2.8Q373.42-2.8 376.62-6.73 379.82-10.65 379.82-18 379.82-25.35 376.47-29.05L376.47-29.05Q373.67-32.2 368.47-32.2L368.47-32.2Q363.57-32.2 360.35-28.25 357.12-24.3 357.12-16.93 357.12-9.55 360.47-5.9ZM411.67-35L414.82-35 414.82-15Q414.82-7.2 411.17-3.25L411.17-3.25Q407.92 0.2 402.24 0.2 396.57 0.2 393.57-2.5L393.57-2.5Q389.57-6.15 389.57-15L389.57-15 389.57-35 392.97-35 392.97-15.05Q392.97-7.8 395.97-4.8L395.97-4.8Q398.22-2.55 402.47-2.55L402.47-2.55Q408.82-2.55 410.92-9.2L410.92-9.2Q411.67-11.55 411.67-15.05L411.67-15.05 411.67-35ZM425.57 0L422.17 0 422.17-35 429.42-35Q435.57-35 438.32-33.05L438.32-33.05Q441.52-30.8 441.52-25.35L441.52-25.35Q441.52-16.25 434.52-14.25L434.52-14.25Q432.27-13.6 429.42-13.6L429.42-13.6 425.57-13.6 425.57 0ZM429.17-32.25L425.57-32.25 425.57-16.35 429.17-16.35Q433.67-16.35 435.89-18.32 438.12-20.3 438.12-24.78 438.12-29.25 435.89-30.75 433.67-32.25 429.17-32.25L429.17-32.25ZM467.31-34.1L467.31-34.1 466.71-31.25Q462.86-32.1 460.16-32.1L460.16-32.1Q450.46-32.1 450.46-26.2L450.46-26.2Q450.46-23.95 451.89-22.75 453.31-21.55 455.49-20.78 457.66-20 460.16-19.38 462.66-18.75 464.81-17.7L464.81-17.7Q469.86-15.2 469.86-10.05 469.86-4.9 466.01-2.25L466.01-2.25Q462.71 0.05 457.31 0.05L457.31 0.05Q450.61 0.05 446.01-3L446.01-3 447.31-5.55Q448.66-4.6 451.16-3.78 453.66-2.95 456.01-2.95L456.01-2.95Q460.61-2.95 463.26-4.45L463.26-4.45Q466.46-6.3 466.46-9.75L466.46-9.75Q466.46-12.3 465.04-13.73 463.61-15.15 461.44-16.03 459.26-16.9 456.76-17.53 454.26-18.15 452.11-19.1L452.11-19.1Q447.06-21.3 447.06-25.65 447.06-30 450.06-32.55 453.06-35.1 458.56-35.1L458.56-35.1Q462.81-35.1 467.31-34.1Z" opacity="1" transform="matrix(1,0,0,1,0,0)" fill="#77d4fc" class="wordmark-text-0" data-fill-palette-color="primary" id="text-0"></path></svg></g></svg></g><g transform="matrix(1,0,0,1,163.310208,37.08733396551591)"><svg viewBox="0 0 232.209792 14.68520423715415" height="14.68520423715415" width="232.209792"><g transform="matrix(1,0,0,1,0,0)"><svg width="232.209792" viewBox="1.6500000953674316 -35.5 569.1699829101562 36" height="14.68520423715415" data-palette-color="#0718c4"><path d="M9.85 0.5Q5.85 0.5 3.75-1.78 1.65-4.05 1.65-8.3L1.65-8.3 1.65-26.7Q1.65-30.95 3.75-33.23 5.85-35.5 9.85-35.5L9.85-35.5Q13.85-35.5 15.95-33.23 18.05-30.95 18.05-26.7L18.05-26.7 18.05-23.7 12.85-23.7 12.85-27.05Q12.85-30.5 10-30.5L10-30.5Q7.15-30.5 7.15-27.05L7.15-27.05 7.15-7.9Q7.15-4.5 10-4.5L10-4.5Q12.85-4.5 12.85-7.9L12.85-7.9 12.85-14.75 10.1-14.75 10.1-19.75 18.05-19.75 18.05-8.3Q18.05-4.05 15.95-1.78 13.85 0.5 9.85 0.5L9.85 0.5ZM29.55 0.5Q25.5 0.5 23.35-1.8 21.2-4.1 21.2-8.3L21.2-8.3 21.2-26.7Q21.2-30.9 23.35-33.2 25.5-35.5 29.55-35.5L29.55-35.5Q33.6-35.5 35.75-33.2 37.9-30.9 37.9-26.7L37.9-26.7 37.9-8.3Q37.9-4.1 35.75-1.8 33.6 0.5 29.55 0.5L29.55 0.5ZM29.55-4.5Q32.4-4.5 32.4-7.95L32.4-7.95 32.4-27.05Q32.4-30.5 29.55-30.5L29.55-30.5Q26.7-30.5 26.7-27.05L26.7-27.05 26.7-7.95Q26.7-4.5 29.55-4.5L29.55-4.5ZM41.59 0L41.59-35 50-35Q54.09-35 56.15-32.8 58.2-30.6 58.2-26.35L58.2-26.35 58.2-8.65Q58.2-4.4 56.15-2.2 54.09 0 50 0L50 0 41.59 0ZM47.09-5L49.9-5Q51.25-5 51.97-5.8 52.7-6.6 52.7-8.4L52.7-8.4 52.7-26.6Q52.7-28.4 51.97-29.2 51.25-30 49.9-30L49.9-30 47.09-30 47.09-5ZM62.74-23.7L61.44-35 67.04-35 65.69-23.7 62.74-23.7ZM78.14 0.5Q74.14 0.5 72.09-1.78 70.04-4.05 70.04-8.3L70.04-8.3 70.04-10.3 75.24-10.3 75.24-7.9Q75.24-4.5 78.09-4.5L78.09-4.5Q79.49-4.5 80.22-5.33 80.94-6.15 80.94-8L80.94-8Q80.94-10.2 79.94-11.88 78.94-13.55 76.24-15.9L76.24-15.9Q72.84-18.9 71.49-21.33 70.14-23.75 70.14-26.8L70.14-26.8Q70.14-30.95 72.24-33.23 74.34-35.5 78.34-35.5L78.34-35.5Q82.29-35.5 84.32-33.23 86.34-30.95 86.34-26.7L86.34-26.7 86.34-25.25 81.14-25.25 81.14-27.05Q81.14-28.85 80.44-29.68 79.74-30.5 78.39-30.5L78.39-30.5Q75.64-30.5 75.64-27.15L75.64-27.15Q75.64-25.25 76.67-23.6 77.69-21.95 80.39-19.6L80.39-19.6Q83.84-16.6 85.14-14.15 86.44-11.7 86.44-8.4L86.44-8.4Q86.44-4.1 84.32-1.8 82.19 0.5 78.14 0.5L78.14 0.5ZM104.74 0.5Q100.74 0.5 98.69-1.78 96.64-4.05 96.64-8.3L96.64-8.3 96.64-10.3 101.84-10.3 101.84-7.9Q101.84-4.5 104.69-4.5L104.69-4.5Q106.09-4.5 106.81-5.33 107.54-6.15 107.54-8L107.54-8Q107.54-10.2 106.54-11.88 105.54-13.55 102.84-15.9L102.84-15.9Q99.44-18.9 98.09-21.33 96.74-23.75 96.74-26.8L96.74-26.8Q96.74-30.95 98.84-33.23 100.94-35.5 104.94-35.5L104.94-35.5Q108.89-35.5 110.91-33.23 112.94-30.95 112.94-26.7L112.94-26.7 112.94-25.25 107.74-25.25 107.74-27.05Q107.74-28.85 107.04-29.68 106.34-30.5 104.99-30.5L104.99-30.5Q102.24-30.5 102.24-27.15L102.24-27.15Q102.24-25.25 103.26-23.6 104.29-21.95 106.99-19.6L106.99-19.6Q110.44-16.6 111.74-14.15 113.04-11.7 113.04-8.4L113.04-8.4Q113.04-4.1 110.91-1.8 108.79 0.5 104.74 0.5L104.74 0.5ZM116.18 0L116.18-35 124.28-35Q128.38-35 130.43-32.8 132.48-30.6 132.48-26.35L132.48-26.35 132.48-22.9Q132.48-18.65 130.43-16.45 128.38-14.25 124.28-14.25L124.28-14.25 121.68-14.25 121.68 0 116.18 0ZM121.68-19.25L124.28-19.25Q125.63-19.25 126.31-20 126.98-20.75 126.98-22.55L126.98-22.55 126.98-26.7Q126.98-28.5 126.31-29.25 125.63-30 124.28-30L124.28-30 121.68-30 121.68-19.25ZM135.48 0L135.48-35 150.48-35 150.48-30 140.98-30 140.98-20.75 148.53-20.75 148.53-15.75 140.98-15.75 140.98-5 150.48-5 150.48 0 135.48 0ZM153.63 0L153.63-35 168.63-35 168.63-30 159.13-30 159.13-20.75 166.68-20.75 166.68-15.75 159.13-15.75 159.13-5 168.63-5 168.63 0 153.63 0ZM171.78 0L171.78-35 180.18-35Q184.28-35 186.33-32.8 188.38-30.6 188.38-26.35L188.38-26.35 188.38-8.65Q188.38-4.4 186.33-2.2 184.28 0 180.18 0L180.18 0 171.78 0ZM177.28-5L180.08-5Q181.43-5 182.15-5.8 182.88-6.6 182.88-8.4L182.88-8.4 182.88-26.6Q182.88-28.4 182.15-29.2 181.43-30 180.08-30L180.08-30 177.28-30 177.28-5ZM200.07 0L200.07-35 205.57-35 205.57 0 200.07 0ZM209.67 0L209.67-35 216.57-35 221.92-14.05 222.02-14.05 222.02-35 226.92-35 226.92 0 221.27 0 214.67-25.55 214.57-25.55 214.57 0 209.67 0ZM239.01 0L239.01-35 245.91-35 251.26-14.05 251.36-14.05 251.36-35 256.26-35 256.26 0 250.61 0 244.01-25.55 243.91-25.55 243.91 0 239.01 0ZM260.36 0L260.36-35 275.36-35 275.36-30 265.86-30 265.86-20.75 273.41-20.75 273.41-15.75 265.86-15.75 265.86-5 275.36-5 275.36 0 260.36 0ZM280.76 0L277.21-35 282.51-35 284.96-8.1 285.06-8.1 287.66-35 293.66-35 296.26-8.1 296.36-8.1 298.81-35 303.56-35 300.01 0 293.16 0 290.66-23.6 290.56-23.6 288.06 0 280.76 0ZM312.9 0L318.6-35 326.05-35 331.75 0 326.25 0 325.25-6.95 325.25-6.85 319-6.85 318 0 312.9 0ZM319.65-11.6L324.6-11.6 322.15-28.9 322.05-28.9 319.65-11.6ZM342.1 0.5Q338.1 0.5 336-1.78 333.9-4.05 333.9-8.3L333.9-8.3 333.9-26.7Q333.9-30.95 336-33.23 338.1-35.5 342.1-35.5L342.1-35.5Q346.1-35.5 348.2-33.23 350.3-30.95 350.3-26.7L350.3-26.7 350.3-23.7 345.1-23.7 345.1-27.05Q345.1-30.5 342.25-30.5L342.25-30.5Q339.4-30.5 339.4-27.05L339.4-27.05 339.4-7.9Q339.4-4.5 342.25-4.5L342.25-4.5Q345.1-4.5 345.1-7.9L345.1-7.9 345.1-14.75 342.35-14.75 342.35-19.75 350.3-19.75 350.3-8.3Q350.3-4.05 348.2-1.78 346.1 0.5 342.1 0.5L342.1 0.5ZM353.85 0L353.85-35 368.85-35 368.85-30 359.35-30 359.35-20.75 366.9-20.75 366.9-15.75 359.35-15.75 359.35-5 368.85-5 368.85 0 353.85 0ZM384.29 0L384.29-30 378.54-30 378.54-35 395.54-35 395.54-30 389.79-30 389.79 0 384.29 0ZM398.19 0L398.19-35 413.19-35 413.19-30 403.69-30 403.69-20.75 411.24-20.75 411.24-15.75 403.69-15.75 403.69-5 413.19-5 413.19 0 398.19 0ZM424.09 0.5Q420.14 0.5 418.06-1.75 415.99-4 415.99-8.1L415.99-8.1 415.99-26.9Q415.99-31 418.06-33.25 420.14-35.5 424.09-35.5L424.09-35.5Q428.04-35.5 430.11-33.25 432.19-31 432.19-26.9L432.19-26.9 432.19-23.2 426.99-23.2 426.99-27.25Q426.99-30.5 424.24-30.5L424.24-30.5Q421.49-30.5 421.49-27.25L421.49-27.25 421.49-7.7Q421.49-4.5 424.24-4.5L424.24-4.5Q426.99-4.5 426.99-7.7L426.99-7.7 426.99-13.05 432.19-13.05 432.19-8.1Q432.19-4 430.11-1.75 428.04 0.5 424.09 0.5L424.09 0.5ZM435.49 0L435.49-35 440.99-35 440.99-20.75 446.88-20.75 446.88-35 452.38-35 452.38 0 446.88 0 446.88-15.75 440.99-15.75 440.99 0 435.49 0ZM456.48 0L456.48-35 463.38-35 468.73-14.05 468.83-14.05 468.83-35 473.73-35 473.73 0 468.08 0 461.48-25.55 461.38-25.55 461.38 0 456.48 0ZM485.78 0.5Q481.73 0.5 479.58-1.8 477.43-4.1 477.43-8.3L477.43-8.3 477.43-26.7Q477.43-30.9 479.58-33.2 481.73-35.5 485.78-35.5L485.78-35.5Q489.83-35.5 491.98-33.2 494.13-30.9 494.13-26.7L494.13-26.7 494.13-8.3Q494.13-4.1 491.98-1.8 489.83 0.5 485.78 0.5L485.78 0.5ZM485.78-4.5Q488.63-4.5 488.63-7.95L488.63-7.95 488.63-27.05Q488.63-30.5 485.78-30.5L485.78-30.5Q482.93-30.5 482.93-27.05L482.93-27.05 482.93-7.95Q482.93-4.5 485.78-4.5L485.78-4.5ZM497.83 0L497.83-35 503.33-35 503.33-5 512.38-5 512.38 0 497.83 0ZM522.77 0.5Q518.73 0.5 516.57-1.8 514.42-4.1 514.42-8.3L514.42-8.3 514.42-26.7Q514.42-30.9 516.57-33.2 518.73-35.5 522.77-35.5L522.77-35.5Q526.82-35.5 528.98-33.2 531.13-30.9 531.13-26.7L531.13-26.7 531.13-8.3Q531.13-4.1 528.98-1.8 526.82 0.5 522.77 0.5L522.77 0.5ZM522.77-4.5Q525.63-4.5 525.63-7.95L525.63-7.95 525.63-27.05Q525.63-30.5 522.77-30.5L522.77-30.5Q519.92-30.5 519.92-27.05L519.92-27.05 519.92-7.95Q519.92-4.5 522.77-4.5L522.77-4.5ZM542.62 0.5Q538.62 0.5 536.52-1.78 534.42-4.05 534.42-8.3L534.42-8.3 534.42-26.7Q534.42-30.95 536.52-33.23 538.62-35.5 542.62-35.5L542.62-35.5Q546.62-35.5 548.72-33.23 550.82-30.95 550.82-26.7L550.82-26.7 550.82-23.7 545.62-23.7 545.62-27.05Q545.62-30.5 542.77-30.5L542.77-30.5Q539.92-30.5 539.92-27.05L539.92-27.05 539.92-7.9Q539.92-4.5 542.77-4.5L542.77-4.5Q545.62-4.5 545.62-7.9L545.62-7.9 545.62-14.75 542.87-14.75 542.87-19.75 550.82-19.75 550.82-8.3Q550.82-4.05 548.72-1.78 546.62 0.5 542.62 0.5L542.62 0.5ZM558.67 0L558.67-14.9 552.02-35 557.87-35 561.62-22.15 561.72-22.15 565.47-35 570.82-35 564.17-14.9 564.17 0 558.67 0Z" opacity="1" transform="matrix(1,0,0,1,0,0)" fill="#0718c4" class="slogan-text-1" data-fill-palette-color="secondary" id="text-1"></path></svg></g></svg></g></svg></g></svg></g><g transform="matrix(1,0,0,1,412.392290180883,0)"><svg viewBox="0 0 88.54638515592511 71.54964779609003" height="71.54964779609003" width="88.54638515592511"><g><svg xmlns="http://www.w3.org/2000/svg" xmlns:xlink="http://www.w3.org/1999/xlink" version="1.1" x="0" y="0" viewBox="0 49.099998474121094 511.97509765625 413.6999816894531" style="enable-background:new 0 0 512 512;" xml:space="preserve" height="71.54964779609003" width="88.54638515592511" class="icon-icon-0" data-fill-palette-color="accent" id="icon-0"><g fill="#0718c4" data-fill-palette-color="accent"><path d="M112 358.7c23.2-9.7 48.1-15.2 73.7-16.5v-64.1h-85.1C101.6 306.9 105.5 334.3 112 358.7z" fill="#0718c4" data-fill-palette-color="accent"></path><path d="M100.7 254.8h85.1v-64.6c-25.6-1.3-50.5-6.8-73.6-16.4C105.6 198.3 101.6 225.9 100.7 254.8z" fill="#0718c4" data-fill-palette-color="accent"></path><path d="M119.2 151.4c20.9 9 43.4 14.2 66.6 15.5V70.1C158.7 77.1 134.8 107.8 119.2 151.4z" fill="#0718c4" data-fill-palette-color="accent"></path><path d="M90.6 163.3c-14.4-8-27.9-17.7-40.3-28.8C21.2 166.8 2.7 208.7 0 254.8h77.4C78.3 221.7 82.9 190.7 90.6 163.3z" fill="#0718c4" data-fill-palette-color="accent"></path><path d="M132.2 79.7c-24.3 8.5-46.4 21.6-65.4 38.3 9.7 8.6 20.1 16.1 31.1 22.5C107 116.2 118.6 95.6 132.2 79.7z" fill="#0718c4" data-fill-palette-color="accent"></path><path d="M185.8 462.8v-97.3c-23.3 1.3-45.8 6.6-66.7 15.6C134.6 425 158.6 455.8 185.8 462.8z" fill="#0718c4" data-fill-palette-color="accent"></path><path d="M233.1 101.5l0.9-7.6 7.4-2.2c0.2-0.1 0.4-0.1 0.6-0.2-8.8-9.5-19.9-18-32.9-21.4v97c9.5-0.5 18.8-1.8 28-3.7C230.3 128.1 233 102.1 233.1 101.5z" fill="#0718c4" data-fill-palette-color="accent"></path><path d="M66.5 414.7c19 16.8 41.2 30 65.6 38.5-13.6-15.9-25.3-36.7-34.4-61.2C86.7 398.5 76.3 406 66.5 414.7z" fill="#0718c4" data-fill-palette-color="accent"></path><path d="M77.4 278.1H0c2.7 46 21.1 87.8 50 120.1 12.5-11.2 26-21 40.5-29C82.9 341.9 78.3 311.1 77.4 278.1z" fill="#0718c4" data-fill-palette-color="accent"></path><path d="M209.1 365.5v97.3c27.3-6.9 51.4-37.6 67-81.6C255 372.2 232.4 366.9 209.1 365.5z" fill="#0718c4" data-fill-palette-color="accent"></path><path d="M317.1 151.9c6.3 29.7 23.3 67 66.7 94.3 43.4-27.3 60.4-64.6 66.7-94.3-24.6-9.7-47-20.4-66.7-32.2C364 131.5 341.7 142.3 317.1 151.9z" fill="#0718c4" data-fill-palette-color="accent"></path><path d="M242.6 186.1c-11 2.3-22.2 3.7-33.5 4.3v64.4h66.7C259.3 231.8 249 208 242.6 186.1z" fill="#0718c4" data-fill-palette-color="accent"></path><path d="M511.8 111.7c-73.1-22.6-112.3-49.6-128.1-62.6-15.8 13-54.9 40-128.1 62.6-1.3 30.5 2.6 144.3 128.1 200.3C509.2 256 513.2 142.2 511.8 111.7zM475.2 146.2c-5.6 37.1-25 88.7-85.6 123.6l-5.8 3.4-5.8-3.4c-60.6-34.9-80-86.5-85.6-123.7l-1.4-9.3 8.8-3.3c29.4-11 55.6-23.5 77.8-37.3l6.1-3.8 6.1 3.8c22.3 13.8 48.5 26.4 77.8 37.4l8.8 3.3L475.2 146.2z" fill="#0718c4" data-fill-palette-color="accent"></path><path d="M294.1 278.1h-85.1v64.1c25.7 1.3 50.6 6.8 73.8 16.5C289.3 334.4 293.3 307.1 294.1 278.1z" fill="#0718c4" data-fill-palette-color="accent"></path><path d="M316.5 298.1c-1.9 25.4-6.2 49.2-12.4 71 14.6 8.1 28.3 18 41 29.4 15.9-17.8 28.6-38.6 37.3-61.7l-3.2-1.4C354.3 324.9 333.7 312.1 316.5 298.1z" fill="#0718c4" data-fill-palette-color="accent"></path><path d="M261.7 453.8c24.8-8.5 47.4-21.8 66.8-38.9-9.9-8.8-20.5-16.5-31.8-23C287.5 416.7 275.6 437.8 261.7 453.8z" fill="#0718c4" data-fill-palette-color="accent"></path></g></svg></g></svg></g></svg></g><defs></defs></svg><rect width="395.52" height="56.492577015105425" fill="none" stroke="none" visibility="hidden"></rect></g></svg></g></svg>